G04*
G04 #@! TF.GenerationSoftware,Altium Limited,Altium Designer,21.1.1 (26)*
G04*
G04 Layer_Color=32768*
%FSAX44Y44*%
%MOMM*%
G71*
G04*
G04 #@! TF.SameCoordinates,7C830176-F0F4-4CA8-9266-6C2C436D825E*
G04*
G04*
G04 #@! TF.FilePolarity,Positive*
G04*
G01*
G75*
%ADD10C,0.2000*%
%ADD11C,0.2540*%
%ADD17C,0.1000*%
%ADD89C,0.0500*%
D10*
X00378720Y00484980D02*
X00368720D01*
Y00464980D02*
Y00484980D01*
X00378720Y00464980D02*
X00368720D01*
X00378720D02*
Y00484980D01*
X00568330Y01382276D02*
Y01392276D01*
Y01382276D02*
X00548330D01*
Y01392276D01*
X00568330D02*
X00548330D01*
D11*
X00533730Y00619788D02*
X00473730D01*
X00533730Y00559788D02*
Y00619788D01*
Y00559788D02*
X00473730D01*
Y00619788D01*
X00697052Y01000224D02*
X00637052D01*
Y01060224D01*
X00697052D02*
X00637052D01*
X00697052Y01000224D02*
Y01060224D01*
D17*
X00440717Y01468918D02*
X00430717D01*
X00435717Y01463918D02*
Y01473918D01*
X00471717Y01425418D02*
Y01512418D01*
X00399717Y01425418D02*
Y01512418D01*
X00471717Y01425418D02*
X00399717D01*
X00471717Y01512418D02*
X00399717D01*
X00483460Y01461300D02*
X00477259Y01455100D01*
X00493759Y01461300D02*
X00477259D01*
X00493759Y01434300D02*
Y01461300D01*
Y01434300D02*
X00477259D01*
Y01461300D01*
X00537237Y01338949D02*
X00530166D01*
X00604412Y01271774D02*
X00533702Y01342485D01*
X00604412Y01271774D02*
X00533702Y01201063D01*
X00462991Y01271774D01*
X00533702Y01342485D02*
X00462991Y01271774D01*
X00603070Y00885870D02*
X00504075Y00786875D01*
X00603070Y00885870D02*
X00504075Y00984865D01*
X00405080Y00885870D01*
X00504075Y00786875D02*
X00405080Y00885870D01*
X00507610Y00790410D02*
X00500539D01*
D89*
X00562628Y00676275D02*
X00562697Y00673733D01*
X00562903Y00671199D01*
X00563246Y00668679D01*
X00563726Y00666182D01*
X00564339Y00663715D01*
X00565085Y00661284D01*
X00565962Y00658897D01*
X00566967Y00656561D01*
X00568097Y00654283D01*
X00569348Y00652070D01*
X00570718Y00649927D01*
X00572201Y00647862D01*
X00573794Y00645880D01*
X00575492Y00643987D01*
X00577290Y00642189D01*
X00579183Y00640491D01*
X00581165Y00638898D01*
X00583230Y00637415D01*
X00585373Y00636045D01*
X00587586Y00634794D01*
X00589864Y00633664D01*
X00592200Y00632659D01*
X00594587Y00631783D01*
X00597018Y00631036D01*
X00599485Y00630423D01*
X00601982Y00629943D01*
X00604502Y00629600D01*
X00607036Y00629394D01*
X00609578Y00629325D01*
X00612120Y00629394D01*
X00614654Y00629600D01*
X00617174Y00629944D01*
X00619671Y00630423D01*
X00622138Y00631036D01*
X00624569Y00631783D01*
X00626956Y00632660D01*
X00629292Y00633664D01*
X00631570Y00634794D01*
X00633783Y00636046D01*
X00635926Y00637415D01*
X00637991Y00638899D01*
X00639973Y00640492D01*
X00641865Y00642190D01*
X00643663Y00643988D01*
X00645361Y00645880D01*
X00646954Y00647862D01*
X00648438Y00649928D01*
X00649807Y00652070D01*
X00651059Y00654283D01*
X00652189Y00656561D01*
X00653193Y00658897D01*
X00654070Y00661284D01*
X00654817Y00663715D01*
X00655430Y00666182D01*
X00655909Y00668680D01*
X00656253Y00671199D01*
X00656459Y00673734D01*
X00656528Y00676275D01*
X00367178Y00804421D02*
X00343137Y00780380D01*
X00314145Y00809371D01*
X00367178Y00804421D02*
X00338187Y00833413D01*
X00314145Y00809371D01*
X00426022Y00671005D02*
Y00695005D01*
Y00671005D02*
X00385022D01*
Y00695005D01*
X00426022D02*
X00385022D01*
X00550548Y00473418D02*
Y00487718D01*
X00579848Y00473418D02*
Y00487718D01*
X00550548D01*
X00579848Y00473418D02*
X00550548D01*
X00392920Y00699906D02*
Y00716906D01*
X00403720Y00699906D02*
X00392920D01*
X00403720D02*
Y00716906D01*
X00392920D01*
X00406762Y00699906D02*
Y00716906D01*
X00417562Y00699906D02*
X00406762D01*
X00417562D02*
Y00716906D01*
X00406762D01*
X00530781Y00683538D02*
X00530781Y00700538D01*
X00519981D01*
X00519981Y00683538D02*
X00519981Y00700538D01*
X00530781Y00683538D02*
X00519981D01*
X00589368Y00534576D02*
Y00548876D01*
X00560068Y00534576D02*
Y00548876D01*
X00589368D02*
X00560068D01*
X00589368Y00534576D02*
X00560068D01*
X00589368Y00551918D02*
X00589368Y00566218D01*
X00560068D02*
X00560068Y00551918D01*
X00589368Y00566218D02*
X00560068D01*
X00589368Y00551918D02*
X00560068D01*
X00589368Y00569261D02*
Y00583561D01*
X00560068Y00569261D02*
Y00583561D01*
X00589368D02*
X00560068D01*
X00589368Y00569261D02*
X00560068D01*
X00589368Y00600903D02*
X00589368Y00586603D01*
X00560068D02*
X00560068Y00600903D01*
X00589368D02*
X00560068D01*
X00589368Y00586603D02*
X00560068D01*
X00589368Y00603946D02*
Y00618246D01*
X00560068Y00603946D02*
Y00618246D01*
X00589368D02*
X00560068D01*
X00589368Y00603946D02*
X00560068D01*
X00589368Y00621288D02*
X00589368Y00635588D01*
X00560068D02*
X00560068Y00621288D01*
X00589368Y00635588D02*
X00560068D01*
X00589368Y00621288D02*
X00560068D01*
X00589368Y00638631D02*
Y00652931D01*
X00560068Y00638631D02*
Y00652931D01*
X00589368D02*
X00560068D01*
X00589368Y00638631D02*
X00560068D01*
X00589368Y00670273D02*
X00589368Y00655973D01*
X00560068D02*
X00560068Y00670273D01*
X00589368Y00670273D02*
X00560068Y00670273D01*
X00589368Y00655973D02*
X00560068D01*
X00589368Y00673316D02*
Y00687616D01*
X00560068Y00673316D02*
Y00687616D01*
X00589368D02*
X00560068D01*
X00589368Y00673316D02*
X00560068D01*
X00405216Y00618916D02*
X00390916Y00618916D01*
X00405216Y00589616D02*
X00390916Y00589616D01*
Y00618916D01*
X00405216Y00589616D02*
Y00618916D01*
X00418258Y00618841D02*
X00408258D01*
X00408258Y00598841D02*
X00408258Y00618841D01*
X00418258Y00598841D02*
X00408258D01*
X00418258D02*
X00418258Y00618841D01*
X00442478Y01066624D02*
Y01095424D01*
X00456778Y01066624D02*
Y01095424D01*
X00442478D01*
X00456778Y01066624D02*
X00442478D01*
X00573110Y00971632D02*
X00558810D01*
X00573110Y01000932D02*
X00558810Y01000932D01*
X00573110Y00971632D02*
Y01000932D01*
X00558810Y00971632D02*
Y01000932D01*
X00648548Y01113200D02*
X00634248D01*
X00648548Y01083900D02*
X00634248Y01083900D01*
Y01113200D01*
X00648548Y01083900D02*
Y01113200D01*
X00612362Y01197516D02*
X00602362D01*
X00612362D02*
Y01217516D01*
X00602362D01*
Y01197516D02*
Y01217516D01*
X00644406Y01269826D02*
X00644406Y01284126D01*
X00673706D02*
X00673706Y01269826D01*
X00644406D01*
X00673706Y01284126D02*
X00644406D01*
Y01286238D02*
Y01300538D01*
X00673706Y01286238D02*
Y01300538D01*
Y01286238D02*
X00644406D01*
X00673706Y01300538D02*
X00644406D01*
X00644406Y01302650D02*
Y01316950D01*
X00673706Y01302650D02*
Y01316950D01*
Y01302650D02*
X00644406D01*
X00673706Y01316950D02*
X00644406D01*
X00573110Y01368724D02*
X00558810D01*
X00573110Y01339424D02*
X00558810D01*
Y01368724D01*
X00573110Y01339424D02*
Y01368724D01*
X00562628Y00676275D02*
Y00729575D01*
X00656528D02*
X00562628D01*
X00656528Y00676275D02*
Y00729575D01*
X00535318Y01140671D02*
X00525318D01*
Y01160671D01*
X00535318D02*
X00525318D01*
X00535318Y01140671D02*
Y01160671D01*
X00387222Y01406316D02*
X00372922Y01406316D01*
X00387222Y01377016D02*
X00372922D01*
X00372922Y01406316D01*
X00387222Y01377016D02*
Y01406316D01*
X00452870Y01406316D02*
X00438570Y01406316D01*
X00452870Y01377016D02*
X00438570Y01377016D01*
Y01406316D01*
X00452870Y01377016D02*
Y01406316D01*
X00469282Y01406316D02*
X00454982Y01406316D01*
X00469282Y01377016D02*
X00454982D01*
X00454982Y01406316D01*
X00469282Y01377016D02*
Y01406316D01*
X00485694Y01406316D02*
X00471394D01*
X00485694Y01377016D02*
X00471394D01*
X00471394Y01406316D01*
X00485694Y01377016D02*
Y01406316D01*
X00394001Y01445201D02*
X00384001D01*
X00394001Y01425201D02*
Y01445201D01*
Y01425201D02*
X00384001D01*
Y01445201D01*
X00345119D02*
X00335119D01*
X00345119Y01425201D02*
Y01445201D01*
Y01425201D02*
X00335119D01*
Y01445201D01*
X00380162Y01425116D02*
X00348162D01*
Y01474116D01*
X00380162D02*
X00348162D01*
X00380162Y01425116D02*
Y01474116D01*
X00379082Y01495434D02*
Y01512434D01*
Y01495434D02*
X00368282D01*
Y01512434D01*
X00379082D02*
X00368282D01*
X00396424Y01483118D02*
X00382124Y01483118D01*
X00396424Y01512418D02*
X00382124Y01512418D01*
X00382124Y01483118D01*
X00396424Y01512418D02*
X00396424Y01483118D01*
X00490052Y01483372D02*
X00475752D01*
X00490052Y01512672D02*
X00475752D01*
Y01483372D02*
Y01512672D01*
X00490052Y01483372D02*
Y01512672D01*
X00505828Y01494672D02*
Y01511672D01*
Y01494672D02*
X00495028D01*
Y01511672D01*
X00505828D02*
X00495028D01*
X00589112Y01473282D02*
X00574812Y01473282D01*
X00589112Y01502582D02*
X00574812D01*
Y01473282D02*
Y01502582D01*
X00589112D02*
X00589112Y01473282D01*
X00654568Y00797896D02*
Y00827196D01*
X00668868Y00797896D02*
Y00827196D01*
X00654568D01*
X00668868Y00797896D02*
X00654568D01*
X00353428Y00465972D02*
X00342628D01*
Y00482972D01*
X00353428D02*
X00342628D01*
X00353428Y00465972D02*
Y00482972D01*
X00470508Y00459368D02*
X00459708D01*
Y00476368D01*
X00470508D02*
X00459708D01*
X00470508Y00459368D02*
Y00476368D01*
X00487851Y00448568D02*
X00473551D01*
X00487851Y00477368D02*
X00473551Y00477368D01*
X00487851Y00448568D02*
Y00477368D01*
X00473551Y00448568D02*
X00473551Y00477368D01*
X00505193Y00448568D02*
X00490893D01*
X00505193Y00477368D02*
X00490893Y00477368D01*
X00505193Y00477368D02*
X00505193Y00448568D01*
X00490893D02*
Y00477368D01*
X00519036Y00459368D02*
X00508236D01*
Y00476368D01*
X00519036D02*
X00508236D01*
X00519036Y00459368D02*
Y00476368D01*
X00493220Y00480898D02*
Y00495898D01*
X00468720D01*
Y00480898D02*
Y00495898D01*
X00493220Y00480898D02*
X00468720D01*
X00395534Y01265334D02*
Y01285334D01*
Y01265334D02*
X00385534D01*
Y01285334D01*
X00395534D02*
X00385534D01*
X00372492Y01265334D02*
Y01285334D01*
X00382492D02*
X00372492D01*
X00382492Y01265334D02*
Y01285334D01*
Y01265334D02*
X00372492D01*
X00657157Y00629626D02*
Y00658926D01*
X00671457Y00629626D02*
Y00658926D01*
X00657157D01*
X00671457Y00629626D02*
X00657157D01*
X00526120Y01066624D02*
X00511820D01*
X00526120Y01095424D02*
X00511820Y01095424D01*
X00526120Y01095424D02*
X00526120Y01066624D01*
X00511820D02*
Y01095424D01*
X00661590Y01093122D02*
Y01113122D01*
Y01093122D02*
X00651590D01*
Y01113122D01*
X00661590D02*
X00651590D01*
X00371541Y00792865D02*
X00365177Y00799229D01*
X00354995Y00789047D01*
X00361359Y00782683D02*
X00354995Y00789047D01*
X00371541Y00792865D02*
X00361359Y00782683D01*
X00322803Y00821851D02*
X00316439Y00828215D01*
X00332985Y00832033D02*
X00322803Y00821851D01*
X00332985Y00832033D02*
X00326621Y00838397D01*
X00316439Y00828215D01*
X00403634Y01377016D02*
Y01406316D01*
X00389334Y01377016D02*
Y01406316D01*
X00403634Y01377016D02*
X00389334D01*
X00403634Y01406316D02*
X00389334Y01406316D01*
X00420046Y01377016D02*
Y01406316D01*
X00405746Y01377016D02*
Y01406316D01*
X00420046Y01377016D02*
X00405746Y01377016D01*
X00420046Y01406316D02*
X00405746D01*
X00436458Y01377016D02*
X00436458Y01406316D01*
X00422158D02*
X00422158Y01377016D01*
X00436458D02*
X00422158D01*
X00436458Y01406316D02*
X00422158D01*
X00425460Y00777322D02*
Y00806622D01*
X00439760Y00777322D02*
Y00806622D01*
X00425460D01*
X00439760Y00777322D02*
X00425460D01*
X00474050Y00901016D02*
X00459750D01*
X00474050Y00929816D02*
X00459750D01*
X00474050Y00901016D02*
Y00929816D01*
X00459750Y00901016D02*
Y00929816D01*
M02*
