G04*
G04 #@! TF.GenerationSoftware,Altium Limited,Altium Designer,21.1.1 (26)*
G04*
G04 Layer_Color=2752767*
%FSAX44Y44*%
%MOMM*%
G71*
G04*
G04 #@! TF.SameCoordinates,7C830176-F0F4-4CA8-9266-6C2C436D825E*
G04*
G04*
G04 #@! TF.FilePolarity,Positive*
G04*
G01*
G75*
%ADD90C,0.0508*%
%ADD91C,0.0677*%
D90*
X00627634Y01133602D02*
Y01137666D01*
X00631698D01*
Y01133602D01*
X00627634D01*
Y01159002D02*
Y01163066D01*
X00631698D01*
Y01159002D01*
X00627634D01*
X00627634Y01184402D02*
Y01188466D01*
X00631698D01*
Y01184402D01*
X00627634D01*
X00627634Y01209802D02*
Y01213866D01*
X00631698D01*
Y01209802D01*
X00627634D01*
Y01235202D02*
Y01239266D01*
X00631698D01*
Y01235202D01*
X00627634D01*
X00602234D02*
Y01239266D01*
X00606298D01*
Y01235202D01*
X00602234D01*
Y01209802D02*
Y01213866D01*
X00606298D01*
Y01209802D01*
X00602234D01*
X00602234Y01184402D02*
Y01188466D01*
X00606298D01*
Y01184402D01*
X00602234D01*
X00602234Y01159002D02*
Y01163066D01*
X00606298D01*
Y01159002D01*
X00602234D01*
Y01133602D02*
Y01137666D01*
X00606298D01*
Y01133602D01*
X00602234D01*
X00437966Y00702943D02*
X00435934Y00707007D01*
X00439998D01*
X00437966Y00702943D01*
X00412566D02*
X00410534Y00707007D01*
X00414598D01*
X00412566Y00702943D01*
X00387166D02*
X00385134Y00707007D01*
X00389198D01*
X00387166Y00702943D01*
X00333756Y00825754D02*
X00334772Y00826770D01*
X00335788D01*
X00334772Y00827786D01*
X00335788Y00828802D01*
X00334772D01*
X00333756Y00829818D01*
X00332740Y00828802D01*
X00331724D01*
X00332740Y00827786D01*
X00331724Y00826770D01*
X00332740D01*
X00333756Y00825754D01*
Y00927354D02*
X00334772Y00928370D01*
X00335788D01*
X00334772Y00929386D01*
X00335788Y00930402D01*
X00334772D01*
X00333756Y00931418D01*
X00332740Y00930402D01*
X00331724D01*
X00332740Y00929386D01*
X00331724Y00928370D01*
X00332740D01*
X00333756Y00927354D01*
Y00901954D02*
X00334772Y00902970D01*
X00335788D01*
X00334772Y00903986D01*
X00335788Y00905002D01*
X00334772D01*
X00333756Y00906018D01*
X00332740Y00905002D01*
X00331724D01*
X00332740Y00903986D01*
X00331724Y00902970D01*
X00332740D01*
X00333756Y00901954D01*
Y00876554D02*
X00334772Y00877570D01*
X00335788D01*
X00334772Y00878586D01*
X00335788Y00879602D01*
X00334772D01*
X00333756Y00880618D01*
X00332740Y00879602D01*
X00331724D01*
X00332740Y00878586D01*
X00331724Y00877570D01*
X00332740D01*
X00333756Y00876554D01*
Y00851154D02*
X00334772Y00852170D01*
X00335788D01*
X00334772Y00853186D01*
X00335788Y00854202D01*
X00334772D01*
X00333756Y00855218D01*
X00332740Y00854202D01*
X00331724D01*
X00332740Y00853186D01*
X00331724Y00852170D01*
X00332740D01*
X00333756Y00851154D01*
Y00800354D02*
X00334772Y00801370D01*
X00335788D01*
X00334772Y00802386D01*
X00335788Y00803402D01*
X00334772D01*
X00333756Y00804418D01*
X00332740Y00803402D01*
X00331724D01*
X00332740Y00802386D01*
X00331724Y00801370D01*
X00332740D01*
X00333756Y00800354D01*
X00283464Y00914146D02*
Y00918210D01*
X00287528D01*
Y00914146D01*
X00283464D01*
Y00888746D02*
Y00892810D01*
X00287528D01*
Y00888746D01*
X00283464D01*
Y00863346D02*
Y00867410D01*
X00287528D01*
Y00863346D01*
X00283464D01*
Y00837946D02*
Y00842010D01*
X00287528D01*
Y00837946D01*
X00283464D01*
Y00812546D02*
Y00816610D01*
X00287528D01*
Y00812546D01*
X00283464D01*
Y00787146D02*
Y00791210D01*
X00287528D01*
Y00787146D01*
X00283464D01*
Y00761746D02*
Y00765810D01*
X00287528D01*
Y00761746D01*
X00283464D01*
Y00736346D02*
Y00740410D01*
X00287528D01*
Y00736346D01*
X00283464D01*
Y00710946D02*
Y00715010D01*
X00287528D01*
Y00710946D01*
X00283464D01*
Y00685546D02*
Y00689610D01*
X00287528D01*
Y00685546D01*
X00283464D01*
Y00660146D02*
Y00664210D01*
X00287528D01*
Y00660146D01*
X00283464D01*
Y00634746D02*
Y00638810D01*
X00287528D01*
Y00634746D01*
X00283464D01*
Y00609346D02*
Y00613410D01*
X00287528D01*
Y00609346D01*
X00283464D01*
Y00583946D02*
Y00588010D01*
X00287528D01*
Y00583946D01*
X00283464D01*
Y00558546D02*
Y00562610D01*
X00287528D01*
Y00558546D01*
X00283464D01*
Y00533146D02*
Y00537210D01*
X00287528D01*
Y00533146D01*
X00283464D01*
Y00507746D02*
Y00511810D01*
X00287528D01*
Y00507746D01*
X00283464D01*
Y00482346D02*
Y00486410D01*
X00287528D01*
Y00482346D01*
X00283464D01*
Y00456946D02*
Y00461010D01*
X00287528D01*
Y00456946D01*
X00283464D01*
Y00431546D02*
Y00435610D01*
X00287528D01*
Y00431546D01*
X00283464D01*
X00731520Y00915416D02*
Y00919480D01*
X00735584D01*
Y00915416D01*
X00731520D01*
Y00890016D02*
Y00894080D01*
X00735584D01*
Y00890016D01*
X00731520D01*
Y00864616D02*
Y00868680D01*
X00735584D01*
Y00864616D01*
X00731520D01*
Y00839216D02*
Y00843280D01*
X00735584D01*
Y00839216D01*
X00731520D01*
Y00813816D02*
Y00817880D01*
X00735584D01*
Y00813816D01*
X00731520D01*
Y00788416D02*
Y00792480D01*
X00735584D01*
Y00788416D01*
X00731520D01*
Y00763016D02*
Y00767080D01*
X00735584D01*
Y00763016D01*
X00731520D01*
Y00737616D02*
Y00741680D01*
X00735584D01*
Y00737616D01*
X00731520D01*
Y00712216D02*
Y00716280D01*
X00735584D01*
Y00712216D01*
X00731520D01*
Y00686816D02*
Y00690880D01*
X00735584D01*
Y00686816D01*
X00731520D01*
Y00661416D02*
Y00665480D01*
X00735584D01*
Y00661416D01*
X00731520D01*
Y00636016D02*
Y00640080D01*
X00735584D01*
Y00636016D01*
X00731520D01*
Y00610616D02*
Y00614680D01*
X00735584D01*
Y00610616D01*
X00731520D01*
Y00585216D02*
Y00589280D01*
X00735584D01*
Y00585216D01*
X00731520D01*
Y00559816D02*
Y00563880D01*
X00735584D01*
Y00559816D01*
X00731520D01*
Y00534416D02*
Y00538480D01*
X00735584D01*
Y00534416D01*
X00731520D01*
Y00509016D02*
Y00513080D01*
X00735584D01*
Y00509016D01*
X00731520D01*
Y00483616D02*
Y00487680D01*
X00735584D01*
Y00483616D01*
X00731520D01*
Y00458216D02*
Y00462280D01*
X00735584D01*
Y00458216D01*
X00731520D01*
Y00432816D02*
Y00436880D01*
X00735584D01*
Y00432816D01*
X00731520D01*
X00283464Y01458214D02*
Y01462278D01*
X00287528D01*
Y01458214D01*
X00283464D01*
Y01432814D02*
Y01436878D01*
X00287528D01*
Y01432814D01*
X00283464D01*
Y01407414D02*
Y01411478D01*
X00287528D01*
Y01407414D01*
X00283464D01*
Y01382014D02*
Y01386078D01*
X00287528D01*
Y01382014D01*
X00283464D01*
Y01356614D02*
Y01360678D01*
X00287528D01*
Y01356614D01*
X00283464D01*
Y01331214D02*
Y01335278D01*
X00287528D01*
Y01331214D01*
X00283464D01*
Y01305814D02*
Y01309878D01*
X00287528D01*
Y01305814D01*
X00283464D01*
Y01280414D02*
Y01284478D01*
X00287528D01*
Y01280414D01*
X00283464D01*
Y01255014D02*
Y01259078D01*
X00287528D01*
Y01255014D01*
X00283464D01*
Y01229614D02*
Y01233678D01*
X00287528D01*
Y01229614D01*
X00283464D01*
Y01204214D02*
Y01208278D01*
X00287528D01*
Y01204214D01*
X00283464D01*
Y01178814D02*
Y01182878D01*
X00287528D01*
Y01178814D01*
X00283464D01*
Y01153414D02*
Y01157478D01*
X00287528D01*
Y01153414D01*
X00283464D01*
Y01128014D02*
Y01132078D01*
X00287528D01*
Y01128014D01*
X00283464D01*
Y01102614D02*
Y01106678D01*
X00287528D01*
Y01102614D01*
X00283464D01*
Y01077214D02*
Y01081278D01*
X00287528D01*
Y01077214D01*
X00283464D01*
Y01051814D02*
Y01055878D01*
X00287528D01*
Y01051814D01*
X00283464D01*
Y01026414D02*
Y01030478D01*
X00287528D01*
Y01026414D01*
X00283464D01*
Y01001014D02*
Y01005078D01*
X00287528D01*
Y01001014D01*
X00283464D01*
Y00975614D02*
Y00979678D01*
X00287528D01*
Y00975614D01*
X00283464D01*
X00731520Y01460500D02*
Y01464564D01*
X00735584D01*
Y01460500D01*
X00731520D01*
Y01435100D02*
Y01439164D01*
X00735584D01*
Y01435100D01*
X00731520D01*
Y01409700D02*
Y01413764D01*
X00735584D01*
Y01409700D01*
X00731520D01*
Y01384300D02*
Y01388364D01*
X00735584D01*
Y01384300D01*
X00731520D01*
Y01358900D02*
Y01362964D01*
X00735584D01*
Y01358900D01*
X00731520D01*
Y01333500D02*
Y01337564D01*
X00735584D01*
Y01333500D01*
X00731520D01*
Y01308100D02*
Y01312164D01*
X00735584D01*
Y01308100D01*
X00731520D01*
Y01282700D02*
Y01286764D01*
X00735584D01*
Y01282700D01*
X00731520D01*
Y01257300D02*
Y01261364D01*
X00735584D01*
Y01257300D01*
X00731520D01*
Y01231900D02*
Y01235964D01*
X00735584D01*
Y01231900D01*
X00731520D01*
Y01206500D02*
Y01210564D01*
X00735584D01*
Y01206500D01*
X00731520D01*
Y01181100D02*
Y01185164D01*
X00735584D01*
Y01181100D01*
X00731520D01*
Y01155700D02*
Y01159764D01*
X00735584D01*
Y01155700D01*
X00731520D01*
Y01130300D02*
Y01134364D01*
X00735584D01*
Y01130300D01*
X00731520D01*
Y01104900D02*
Y01108964D01*
X00735584D01*
Y01104900D01*
X00731520D01*
Y01079500D02*
Y01083564D01*
X00735584D01*
Y01079500D01*
X00731520D01*
Y01054100D02*
Y01058164D01*
X00735584D01*
Y01054100D01*
X00731520D01*
Y01028700D02*
Y01032764D01*
X00735584D01*
Y01028700D01*
X00731520D01*
Y01003300D02*
Y01007364D01*
X00735584D01*
Y01003300D01*
X00731520D01*
Y00977900D02*
Y00981964D01*
X00735584D01*
Y00977900D01*
X00731520D01*
X00645922Y00538734D02*
X00646938Y00540766D01*
X00645922Y00542798D01*
X00647954Y00541782D01*
X00649986Y00542798D01*
X00648970Y00540766D01*
X00649986Y00538734D01*
X00647954Y00539750D01*
X00645922Y00538734D01*
X00689610Y00594360D02*
X00690626Y00596392D01*
X00689610Y00598424D01*
X00691642Y00597408D01*
X00693674Y00598424D01*
X00692658Y00596392D01*
X00693674Y00594360D01*
X00691642Y00595376D01*
X00689610Y00594360D01*
X00670560Y00492252D02*
X00671576Y00494284D01*
X00670560Y00496316D01*
X00672592Y00495300D01*
X00674624Y00496316D01*
X00673608Y00494284D01*
X00674624Y00492252D01*
X00672592Y00493268D01*
X00670560Y00492252D01*
X00707136Y00753110D02*
X00708152Y00755142D01*
X00707136Y00757174D01*
X00709168Y00756158D01*
X00711200Y00757174D01*
X00710184Y00755142D01*
X00711200Y00753110D01*
X00709168Y00754126D01*
X00707136Y00753110D01*
X00630936Y00457454D02*
X00631952Y00459486D01*
X00630936Y00461518D01*
X00632968Y00460502D01*
X00635000Y00461518D01*
X00633984Y00459486D01*
X00635000Y00457454D01*
X00632968Y00458470D01*
X00630936Y00457454D01*
X00654304Y00454914D02*
X00655320Y00456946D01*
X00654304Y00458978D01*
X00656336Y00457962D01*
X00658368Y00458978D01*
X00657352Y00456946D01*
X00658368Y00454914D01*
X00656336Y00455930D01*
X00654304Y00454914D01*
X00602234Y00489966D02*
X00603250Y00491998D01*
X00602234Y00494030D01*
X00604266Y00493014D01*
X00606298Y00494030D01*
X00605282Y00491998D01*
X00606298Y00489966D01*
X00604266Y00490982D01*
X00602234Y00489966D01*
X00493268Y00532384D02*
X00494284Y00534416D01*
X00493268Y00536448D01*
X00495300Y00535432D01*
X00497332Y00536448D01*
X00496316Y00534416D01*
X00497332Y00532384D01*
X00495300Y00533400D01*
X00493268Y00532384D01*
X00428752Y00520192D02*
X00429768Y00522224D01*
X00428752Y00524256D01*
X00430784Y00523240D01*
X00432816Y00524256D01*
X00431800Y00522224D01*
X00432816Y00520192D01*
X00430784Y00521208D01*
X00428752Y00520192D01*
X00433832Y00507871D02*
X00434848Y00509903D01*
X00433832Y00511935D01*
X00435864Y00510919D01*
X00437896Y00511935D01*
X00436880Y00509903D01*
X00437896Y00507871D01*
X00435864Y00508887D01*
X00433832Y00507871D01*
X00422656Y00510794D02*
X00423672Y00512826D01*
X00422656Y00514858D01*
X00424688Y00513842D01*
X00426720Y00514858D01*
X00425704Y00512826D01*
X00426720Y00510794D01*
X00424688Y00511810D01*
X00422656Y00510794D01*
X00549910Y00531876D02*
X00550926Y00533908D01*
X00549910Y00535940D01*
X00551942Y00534924D01*
X00553974Y00535940D01*
X00552958Y00533908D01*
X00553974Y00531876D01*
X00551942Y00532892D01*
X00549910Y00531876D01*
X00620014Y00693420D02*
X00621030Y00695452D01*
X00620014Y00697484D01*
X00622046Y00696468D01*
X00624078Y00697484D01*
X00623062Y00695452D01*
X00624078Y00693420D01*
X00622046Y00694436D01*
X00620014Y00693420D01*
X00496316Y00448056D02*
X00497332Y00450088D01*
X00496316Y00452120D01*
X00498348Y00451104D01*
X00500380Y00452120D01*
X00499364Y00450088D01*
X00500380Y00448056D01*
X00498348Y00449072D01*
X00496316Y00448056D01*
X00453390Y00521716D02*
X00454406Y00523748D01*
X00453390Y00525780D01*
X00455422Y00524764D01*
X00457454Y00525780D01*
X00456438Y00523748D01*
X00457454Y00521716D01*
X00455422Y00522732D01*
X00453390Y00521716D01*
X00553974Y00508254D02*
X00554990Y00510286D01*
X00553974Y00512318D01*
X00556006Y00511302D01*
X00558038Y00512318D01*
X00557022Y00510286D01*
X00558038Y00508254D01*
X00556006Y00509270D01*
X00553974Y00508254D01*
X00553466Y00625348D02*
X00554482Y00627380D01*
X00553466Y00629412D01*
X00555498Y00628396D01*
X00557530Y00629412D01*
X00556514Y00627380D01*
X00557530Y00625348D01*
X00555498Y00626364D01*
X00553466Y00625348D01*
X00597408Y00830580D02*
X00598424Y00832612D01*
X00597408Y00834644D01*
X00599440Y00833628D01*
X00601472Y00834644D01*
X00600456Y00832612D01*
X00601472Y00830580D01*
X00599440Y00831596D01*
X00597408Y00830580D01*
X00628904Y00641350D02*
X00629920Y00643382D01*
X00628904Y00645414D01*
X00630936Y00644398D01*
X00632968Y00645414D01*
X00631952Y00643382D01*
X00632968Y00641350D01*
X00630936Y00642366D01*
X00628904Y00641350D01*
X00689991Y00737997D02*
X00691007Y00740029D01*
X00689991Y00742061D01*
X00692023Y00741045D01*
X00694055Y00742061D01*
X00693039Y00740029D01*
X00694055Y00737997D01*
X00692023Y00739013D01*
X00689991Y00737997D01*
X00601726Y00807466D02*
X00602742Y00809498D01*
X00601726Y00811530D01*
X00603758Y00810514D01*
X00605790Y00811530D01*
X00604774Y00809498D01*
X00605790Y00807466D01*
X00603758Y00808482D01*
X00601726Y00807466D01*
X00421386Y00781812D02*
X00422402Y00783844D01*
X00421386Y00785876D01*
X00423418Y00784860D01*
X00425450Y00785876D01*
X00424434Y00783844D01*
X00425450Y00781812D01*
X00423418Y00782828D01*
X00421386Y00781812D01*
X00432308Y00725424D02*
X00433324Y00727456D01*
X00432308Y00729488D01*
X00434340Y00728472D01*
X00436372Y00729488D01*
X00435356Y00727456D01*
X00436372Y00725424D01*
X00434340Y00726440D01*
X00432308Y00725424D01*
X00428752Y00802640D02*
X00429768Y00804672D01*
X00428752Y00806704D01*
X00430784Y00805688D01*
X00432816Y00806704D01*
X00431800Y00804672D01*
X00432816Y00802640D01*
X00430784Y00803656D01*
X00428752Y00802640D01*
X00332105Y00480187D02*
X00333121Y00482219D01*
X00332105Y00484251D01*
X00334137Y00483235D01*
X00336169Y00484251D01*
X00335153Y00482219D01*
X00336169Y00480187D01*
X00334137Y00481203D01*
X00332105Y00480187D01*
X00301752Y00466852D02*
X00302768Y00468884D01*
X00301752Y00470916D01*
X00303784Y00469900D01*
X00305816Y00470916D01*
X00304800Y00468884D01*
X00305816Y00466852D01*
X00303784Y00467868D01*
X00301752Y00466852D01*
X00309118Y00473710D02*
X00310134Y00475742D01*
X00309118Y00477774D01*
X00311150Y00476758D01*
X00313182Y00477774D01*
X00312166Y00475742D01*
X00313182Y00473710D01*
X00311150Y00474726D01*
X00309118Y00473710D01*
X00313944Y00628142D02*
X00314960Y00630174D01*
X00313944Y00632206D01*
X00315976Y00631190D01*
X00318008Y00632206D01*
X00316992Y00630174D01*
X00318008Y00628142D01*
X00315976Y00629158D01*
X00313944Y00628142D01*
X00625094Y00907288D02*
X00626110Y00909320D01*
X00625094Y00911352D01*
X00627126Y00910336D01*
X00629158Y00911352D01*
X00628142Y00909320D01*
X00629158Y00907288D01*
X00627126Y00908304D01*
X00625094Y00907288D01*
X00619760Y00913892D02*
X00620776Y00915924D01*
X00619760Y00917956D01*
X00621792Y00916940D01*
X00623824Y00917956D01*
X00622808Y00915924D01*
X00623824Y00913892D01*
X00621792Y00914908D01*
X00619760Y00913892D01*
X00609854Y00694690D02*
X00610870Y00696722D01*
X00609854Y00698754D01*
X00611886Y00697738D01*
X00613918Y00698754D01*
X00612902Y00696722D01*
X00613918Y00694690D01*
X00611886Y00695706D01*
X00609854Y00694690D01*
X00553974Y00887730D02*
X00554990Y00889762D01*
X00553974Y00891794D01*
X00556006Y00890778D01*
X00558038Y00891794D01*
X00557022Y00889762D01*
X00558038Y00887730D01*
X00556006Y00888746D01*
X00553974Y00887730D01*
X00566674Y00849122D02*
X00567690Y00851154D01*
X00566674Y00853186D01*
X00568706Y00852170D01*
X00570738Y00853186D01*
X00569722Y00851154D01*
X00570738Y00849122D01*
X00568706Y00850138D01*
X00566674Y00849122D01*
X00517906Y00942594D02*
X00518922Y00944626D01*
X00517906Y00946658D01*
X00519938Y00945642D01*
X00521970Y00946658D01*
X00520954Y00944626D01*
X00521970Y00942594D01*
X00519938Y00943610D01*
X00517906Y00942594D01*
X00522224Y00914146D02*
X00523240Y00916178D01*
X00522224Y00918210D01*
X00524256Y00917194D01*
X00526288Y00918210D01*
X00525272Y00916178D01*
X00526288Y00914146D01*
X00524256Y00915162D01*
X00522224Y00914146D01*
X00581406Y00886942D02*
X00582422Y00888974D01*
X00581406Y00891006D01*
X00583438Y00889990D01*
X00585470Y00891006D01*
X00584454Y00888974D01*
X00585470Y00886942D01*
X00583438Y00887958D01*
X00581406Y00886942D01*
X00552450Y00932180D02*
X00553466Y00934212D01*
X00552450Y00936244D01*
X00554482Y00935228D01*
X00556514Y00936244D01*
X00555498Y00934212D01*
X00556514Y00932180D01*
X00554482Y00933196D01*
X00552450Y00932180D01*
X00578358Y00786892D02*
X00579374Y00788924D01*
X00578358Y00790956D01*
X00580390Y00789940D01*
X00582422Y00790956D01*
X00581406Y00788924D01*
X00582422Y00786892D01*
X00580390Y00787908D01*
X00578358Y00786892D01*
X00582676Y00811022D02*
X00583692Y00813054D01*
X00582676Y00815086D01*
X00584708Y00814070D01*
X00586740Y00815086D01*
X00585724Y00813054D01*
X00586740Y00811022D01*
X00584708Y00812038D01*
X00582676Y00811022D01*
X00435864Y00970534D02*
X00436880Y00972566D01*
X00435864Y00974598D01*
X00437896Y00973582D01*
X00439928Y00974598D01*
X00438912Y00972566D01*
X00439928Y00970534D01*
X00437896Y00971550D01*
X00435864Y00970534D01*
X00437642Y00957326D02*
X00438658Y00959358D01*
X00437642Y00961390D01*
X00439674Y00960374D01*
X00441706Y00961390D01*
X00440690Y00959358D01*
X00441706Y00957326D01*
X00439674Y00958342D01*
X00437642Y00957326D01*
X00354076Y00662178D02*
X00355092Y00664210D01*
X00354076Y00666242D01*
X00356108Y00665226D01*
X00358140Y00666242D01*
X00357124Y00664210D01*
X00358140Y00662178D01*
X00356108Y00663194D01*
X00354076Y00662178D01*
X00377952Y00593344D02*
X00378968Y00595376D01*
X00377952Y00597408D01*
X00379984Y00596392D01*
X00382016Y00597408D01*
X00381000Y00595376D01*
X00382016Y00593344D01*
X00379984Y00594360D01*
X00377952Y00593344D01*
X00455422Y00867156D02*
X00456438Y00869188D01*
X00455422Y00871220D01*
X00457454Y00870204D01*
X00459486Y00871220D01*
X00458470Y00869188D01*
X00459486Y00867156D01*
X00457454Y00868172D01*
X00455422Y00867156D01*
X00391795Y00902589D02*
X00392811Y00904621D01*
X00391795Y00906653D01*
X00393827Y00905637D01*
X00395859Y00906653D01*
X00394843Y00904621D01*
X00395859Y00902589D01*
X00393827Y00903605D01*
X00391795Y00902589D01*
X00376301Y00787273D02*
X00377317Y00789305D01*
X00376301Y00791337D01*
X00378333Y00790321D01*
X00380365Y00791337D01*
X00379349Y00789305D01*
X00380365Y00787273D01*
X00378333Y00788289D01*
X00376301Y00787273D01*
X00385845Y00788956D02*
X00386861Y00790988D01*
X00385845Y00793020D01*
X00387877Y00792004D01*
X00389909Y00793020D01*
X00388893Y00790988D01*
X00389909Y00788956D01*
X00387877Y00789972D01*
X00385845Y00788956D01*
X00609854Y00443992D02*
X00610870Y00446024D01*
X00609854Y00448056D01*
X00611886Y00447040D01*
X00613918Y00448056D01*
X00612902Y00446024D01*
X00613918Y00443992D01*
X00611886Y00445008D01*
X00609854Y00443992D01*
X00615696Y00452882D02*
X00616712Y00454914D01*
X00615696Y00456946D01*
X00617728Y00455930D01*
X00619760Y00456946D01*
X00618744Y00454914D01*
X00619760Y00452882D01*
X00617728Y00453898D01*
X00615696Y00452882D01*
X00534162Y00815340D02*
X00535178Y00817372D01*
X00534162Y00819404D01*
X00536194Y00818388D01*
X00538226Y00819404D01*
X00537210Y00817372D01*
X00538226Y00815340D01*
X00536194Y00816356D01*
X00534162Y00815340D01*
X00492252Y00745490D02*
X00493268Y00747522D01*
X00492252Y00749554D01*
X00494284Y00748538D01*
X00496316Y00749554D01*
X00495300Y00747522D01*
X00496316Y00745490D01*
X00494284Y00746506D01*
X00492252Y00745490D01*
X00489712Y00753110D02*
X00490728Y00755142D01*
X00489712Y00757174D01*
X00491744Y00756158D01*
X00493776Y00757174D01*
X00492760Y00755142D01*
X00493776Y00753110D01*
X00491744Y00754126D01*
X00489712Y00753110D01*
X00347037Y00488115D02*
X00348053Y00490147D01*
X00347037Y00492179D01*
X00349069Y00491163D01*
X00351101Y00492179D01*
X00350085Y00490147D01*
X00351101Y00488115D01*
X00349069Y00489131D01*
X00347037Y00488115D01*
X00406400Y00912622D02*
X00407416Y00914654D01*
X00406400Y00916686D01*
X00408432Y00915670D01*
X00410464Y00916686D01*
X00409448Y00914654D01*
X00410464Y00912622D01*
X00408432Y00913638D01*
X00406400Y00912622D01*
X00399176Y00907669D02*
X00400192Y00909701D01*
X00399176Y00911733D01*
X00401208Y00910717D01*
X00403240Y00911733D01*
X00402224Y00909701D01*
X00403240Y00907669D01*
X00401208Y00908685D01*
X00399176Y00907669D01*
X00501904Y01007364D02*
X00502920Y01009396D01*
X00501904Y01011428D01*
X00503936Y01010412D01*
X00505968Y01011428D01*
X00504952Y01009396D01*
X00505968Y01007364D01*
X00503936Y01008380D01*
X00501904Y01007364D01*
X00502666Y01039114D02*
X00503682Y01041146D01*
X00502666Y01043178D01*
X00504698Y01042162D01*
X00506730Y01043178D01*
X00505714Y01041146D01*
X00506730Y01039114D01*
X00504698Y01040130D01*
X00502666Y01039114D01*
X00388620Y01051560D02*
X00389636Y01053592D01*
X00388620Y01055624D01*
X00390652Y01054608D01*
X00392684Y01055624D01*
X00391668Y01053592D01*
X00392684Y01051560D01*
X00390652Y01052576D01*
X00388620Y01051560D01*
X00584740Y00959612D02*
X00585756Y00961644D01*
X00584740Y00963676D01*
X00586772Y00962660D01*
X00588804Y00963676D01*
X00587788Y00961644D01*
X00588804Y00959612D01*
X00586772Y00960628D01*
X00584740Y00959612D01*
X00696722Y01298956D02*
X00697738Y01300988D01*
X00696722Y01303020D01*
X00698754Y01302004D01*
X00700786Y01303020D01*
X00699770Y01300988D01*
X00700786Y01298956D01*
X00698754Y01299972D01*
X00696722Y01298956D01*
X00633984Y01302766D02*
X00635000Y01304798D01*
X00633984Y01306830D01*
X00636016Y01305814D01*
X00638048Y01306830D01*
X00637032Y01304798D01*
X00638048Y01302766D01*
X00636016Y01303782D01*
X00633984Y01302766D01*
X00483362Y00936936D02*
X00484378Y00938968D01*
X00483362Y00941000D01*
X00485394Y00939984D01*
X00487426Y00941000D01*
X00486410Y00938968D01*
X00487426Y00936936D01*
X00485394Y00937952D01*
X00483362Y00936936D01*
X00470154Y00842518D02*
X00471170Y00844550D01*
X00470154Y00846582D01*
X00472186Y00845566D01*
X00474218Y00846582D01*
X00473202Y00844550D01*
X00474218Y00842518D01*
X00472186Y00843534D01*
X00470154Y00842518D01*
X00507238Y00823976D02*
X00508254Y00826008D01*
X00507238Y00828040D01*
X00509270Y00827024D01*
X00511302Y00828040D01*
X00510286Y00826008D01*
X00511302Y00823976D01*
X00509270Y00824992D01*
X00507238Y00823976D01*
X00359918Y00882142D02*
X00360934Y00884174D01*
X00359918Y00886206D01*
X00361950Y00885190D01*
X00363982Y00886206D01*
X00362966Y00884174D01*
X00363982Y00882142D01*
X00361950Y00883158D01*
X00359918Y00882142D01*
X00364490Y00865886D02*
X00365506Y00867918D01*
X00364490Y00869950D01*
X00366522Y00868934D01*
X00368554Y00869950D01*
X00367538Y00867918D01*
X00368554Y00865886D01*
X00366522Y00866902D01*
X00364490Y00865886D01*
X00582765Y00950633D02*
X00583781Y00952665D01*
X00582765Y00954697D01*
X00584797Y00953681D01*
X00586829Y00954697D01*
X00585813Y00952665D01*
X00586829Y00950633D01*
X00584797Y00951649D01*
X00582765Y00950633D01*
X00525780Y01136396D02*
X00526796Y01138428D01*
X00525780Y01140460D01*
X00527812Y01139444D01*
X00529844Y01140460D01*
X00528828Y01138428D01*
X00529844Y01136396D01*
X00527812Y01137412D01*
X00525780Y01136396D01*
X00522478Y01162304D02*
X00523494Y01164336D01*
X00522478Y01166368D01*
X00524510Y01165352D01*
X00526542Y01166368D01*
X00525526Y01164336D01*
X00526542Y01162304D01*
X00524510Y01163320D01*
X00522478Y01162304D01*
X00550926Y01213866D02*
X00551942Y01215898D01*
X00550926Y01217930D01*
X00552958Y01216914D01*
X00554990Y01217930D01*
X00553974Y01215898D01*
X00554990Y01213866D01*
X00552958Y01214882D01*
X00550926Y01213866D01*
X00548386Y01024636D02*
X00549402Y01026668D01*
X00548386Y01028700D01*
X00550418Y01027684D01*
X00552450Y01028700D01*
X00551434Y01026668D01*
X00552450Y01024636D01*
X00550418Y01025652D01*
X00548386Y01024636D01*
X00542534Y01028192D02*
X00543550Y01030224D01*
X00542534Y01032256D01*
X00544566Y01031240D01*
X00546599Y01032256D01*
X00545583Y01030224D01*
X00546599Y01028192D01*
X00544566Y01029208D01*
X00542534Y01028192D01*
X00456438Y01135888D02*
X00457454Y01137920D01*
X00456438Y01139952D01*
X00458470Y01138936D01*
X00460502Y01139952D01*
X00459486Y01137920D01*
X00460502Y01135888D01*
X00458470Y01136904D01*
X00456438Y01135888D01*
X00468122Y01147826D02*
X00469138Y01149858D01*
X00468122Y01151890D01*
X00470154Y01150874D01*
X00472186Y01151890D01*
X00471170Y01149858D01*
X00472186Y01147826D01*
X00470154Y01148842D01*
X00468122Y01147826D01*
X00572008Y01172718D02*
X00573024Y01174750D01*
X00572008Y01176782D01*
X00574040Y01175766D01*
X00576072Y01176782D01*
X00575056Y01174750D01*
X00576072Y01172718D01*
X00574040Y01173734D01*
X00572008Y01172718D01*
X00426212Y01183132D02*
X00427228Y01185164D01*
X00426212Y01187196D01*
X00428244Y01186180D01*
X00430276Y01187196D01*
X00429260Y01185164D01*
X00430276Y01183132D01*
X00428244Y01184148D01*
X00426212Y01183132D01*
X00329692Y01083056D02*
X00330708Y01085088D01*
X00329692Y01087120D01*
X00331724Y01086104D01*
X00333756Y01087120D01*
X00332740Y01085088D01*
X00333756Y01083056D01*
X00331724Y01084072D01*
X00329692Y01083056D01*
X00432054Y01214628D02*
X00433070Y01216660D01*
X00432054Y01218692D01*
X00434086Y01217676D01*
X00436118Y01218692D01*
X00435102Y01216660D01*
X00436118Y01214628D01*
X00434086Y01215644D01*
X00432054Y01214628D01*
X00413766Y01218184D02*
X00414782Y01220216D01*
X00413766Y01222248D01*
X00415798Y01221232D01*
X00417830Y01222248D01*
X00416814Y01220216D01*
X00417830Y01218184D01*
X00415798Y01219200D01*
X00413766Y01218184D01*
X00580644Y01418082D02*
X00581660Y01420114D01*
X00580644Y01422146D01*
X00582676Y01421130D01*
X00584708Y01422146D01*
X00583692Y01420114D01*
X00584708Y01418082D01*
X00582676Y01419098D01*
X00580644Y01418082D01*
X00589280Y01266698D02*
X00590296Y01268730D01*
X00589280Y01270762D01*
X00591312Y01269746D01*
X00593344Y01270762D01*
X00592328Y01268730D01*
X00593344Y01266698D01*
X00591312Y01267714D01*
X00589280Y01266698D01*
X00555498Y01231646D02*
X00556514Y01233678D01*
X00555498Y01235710D01*
X00557530Y01234694D01*
X00559562Y01235710D01*
X00558546Y01233678D01*
X00559562Y01231646D01*
X00557530Y01232662D01*
X00555498Y01231646D01*
X00426466Y01267714D02*
X00427482Y01269746D01*
X00426466Y01271778D01*
X00428498Y01270762D01*
X00430530Y01271778D01*
X00429514Y01269746D01*
X00430530Y01267714D01*
X00428498Y01268730D01*
X00426466Y01267714D01*
X00513588Y01348994D02*
X00514604Y01351026D01*
X00513588Y01353058D01*
X00515620Y01352042D01*
X00517652Y01353058D01*
X00516636Y01351026D01*
X00517652Y01348994D01*
X00515620Y01350010D01*
X00513588Y01348994D01*
X00563626Y01264158D02*
X00564642Y01266190D01*
X00563626Y01268222D01*
X00565658Y01267206D01*
X00567690Y01268222D01*
X00566674Y01266190D01*
X00567690Y01264158D01*
X00565658Y01265174D01*
X00563626Y01264158D01*
X00414782Y01233424D02*
X00415798Y01235456D01*
X00414782Y01237488D01*
X00416814Y01236472D01*
X00418846Y01237488D01*
X00417830Y01235456D01*
X00418846Y01233424D01*
X00416814Y01234440D01*
X00414782Y01233424D01*
X00449072Y01331976D02*
X00450088Y01334008D01*
X00449072Y01336040D01*
X00451104Y01335024D01*
X00453136Y01336040D01*
X00452120Y01334008D01*
X00453136Y01331976D01*
X00451104Y01332992D01*
X00449072Y01331976D01*
X00439166Y01329944D02*
X00440182Y01331976D01*
X00439166Y01334008D01*
X00441198Y01332992D01*
X00443230Y01334008D01*
X00442214Y01331976D01*
X00443230Y01329944D01*
X00441198Y01330960D01*
X00439166Y01329944D01*
X00481584Y01282954D02*
X00482600Y01284986D01*
X00481584Y01287018D01*
X00483616Y01286002D01*
X00485648Y01287018D01*
X00484632Y01284986D01*
X00485648Y01282954D01*
X00483616Y01283970D01*
X00481584Y01282954D01*
X00506222Y01255776D02*
X00507238Y01257808D01*
X00506222Y01259840D01*
X00508254Y01258824D01*
X00510286Y01259840D01*
X00509270Y01257808D01*
X00510286Y01255776D01*
X00508254Y01256792D01*
X00506222Y01255776D01*
X00449560Y01205103D02*
X00450576Y01207135D01*
X00449560Y01209167D01*
X00451592Y01208151D01*
X00453624Y01209167D01*
X00452608Y01207135D01*
X00453624Y01205103D01*
X00451592Y01206119D01*
X00449560Y01205103D01*
X00486664Y01188212D02*
X00487680Y01190244D01*
X00486664Y01192276D01*
X00488696Y01191260D01*
X00490728Y01192276D01*
X00489712Y01190244D01*
X00490728Y01188212D01*
X00488696Y01189228D01*
X00486664Y01188212D01*
X00449580Y01272286D02*
X00450596Y01274318D01*
X00449580Y01276350D01*
X00451612Y01275334D01*
X00453644Y01276350D01*
X00452628Y01274318D01*
X00453644Y01272286D01*
X00451612Y01273302D01*
X00449580Y01272286D01*
X00447294Y01281684D02*
X00448310Y01283716D01*
X00447294Y01285748D01*
X00449326Y01284732D01*
X00451358Y01285748D01*
X00450342Y01283716D01*
X00451358Y01281684D01*
X00449326Y01282700D01*
X00447294Y01281684D01*
X00444246Y01378204D02*
X00445262Y01380236D01*
X00444246Y01382268D01*
X00446278Y01381252D01*
X00448310Y01382268D01*
X00447294Y01380236D01*
X00448310Y01378204D01*
X00446278Y01379220D01*
X00444246Y01378204D01*
X00603758Y01470406D02*
X00604774Y01472438D01*
X00603758Y01474470D01*
X00605790Y01473454D01*
X00607822Y01474470D01*
X00606806Y01472438D01*
X00607822Y01470406D01*
X00605790Y01471422D01*
X00603758Y01470406D01*
X00588518Y00830580D02*
X00589534Y00832612D01*
X00588518Y00834644D01*
X00590550Y00833628D01*
X00592582Y00834644D01*
X00591566Y00832612D01*
X00592582Y00830580D01*
X00590550Y00831596D01*
X00588518Y00830580D01*
X00606552Y00829056D02*
X00607568Y00831088D01*
X00606552Y00833120D01*
X00608584Y00832104D01*
X00610616Y00833120D01*
X00609600Y00831088D01*
X00610616Y00829056D01*
X00608584Y00830072D01*
X00606552Y00829056D01*
X00411353Y00918464D02*
X00412369Y00920496D01*
X00411353Y00922528D01*
X00413385Y00921512D01*
X00415417Y00922528D01*
X00414401Y00920496D01*
X00415417Y00918464D01*
X00413385Y00919480D01*
X00411353Y00918464D01*
X00384691Y01435743D02*
X00385707Y01437775D01*
X00384691Y01439807D01*
X00386723Y01438791D01*
X00388755Y01439807D01*
X00387739Y01437775D01*
X00388755Y01435743D01*
X00386723Y01436759D01*
X00384691Y01435743D01*
X00378191Y01426957D02*
X00379207Y01428989D01*
X00378191Y01431021D01*
X00380223Y01430005D01*
X00382255Y01431021D01*
X00381239Y01428989D01*
X00382255Y01426957D01*
X00380223Y01427973D01*
X00378191Y01426957D01*
X00701802Y00816102D02*
X00702818Y00818134D01*
X00701802Y00820166D01*
X00703834Y00819150D01*
X00705866Y00820166D01*
X00704850Y00818134D01*
X00705866Y00816102D01*
X00703834Y00817118D01*
X00701802Y00816102D01*
X00655574Y00809498D02*
X00656590Y00811530D01*
X00655574Y00813562D01*
X00657606Y00812546D01*
X00659638Y00813562D01*
X00658622Y00811530D01*
X00659638Y00809498D01*
X00657606Y00810514D01*
X00655574Y00809498D01*
X00673100Y00826516D02*
X00674116Y00828548D01*
X00673100Y00830580D01*
X00675132Y00829564D01*
X00677164Y00830580D01*
X00676148Y00828548D01*
X00677164Y00826516D01*
X00675132Y00827532D01*
X00673100Y00826516D01*
X00664972Y00781304D02*
X00665988Y00783336D01*
X00664972Y00785368D01*
X00667004Y00784352D01*
X00669036Y00785368D01*
X00668020Y00783336D01*
X00669036Y00781304D01*
X00667004Y00782320D01*
X00664972Y00781304D01*
X00453644Y01399794D02*
X00454660Y01401826D01*
X00453644Y01403858D01*
X00455676Y01402842D01*
X00457708Y01403858D01*
X00456692Y01401826D01*
X00457708Y01399794D01*
X00455676Y01400810D01*
X00453644Y01399794D01*
X00461264Y01453388D02*
X00462280Y01455420D01*
X00461264Y01457452D01*
X00463296Y01456436D01*
X00465328Y01457452D01*
X00464312Y01455420D01*
X00465328Y01453388D01*
X00463296Y01454404D01*
X00461264Y01453388D01*
D91*
X00461248Y00456926D02*
X00459844Y00458858D01*
X00457572Y00458120D01*
Y00455731D01*
X00459844Y00454993D01*
X00461248Y00456926D01*
X00435848Y00456926D02*
X00434444Y00458858D01*
X00432172Y00458120D01*
Y00455731D01*
X00434444Y00454993D01*
X00435848Y00456926D01*
X00410448Y00456926D02*
X00409044Y00458858D01*
X00406772Y00458120D01*
Y00455731D01*
X00409044Y00454993D01*
X00410448Y00456926D01*
X00385048D02*
X00383644Y00458858D01*
X00381372Y00458120D01*
Y00455731D01*
X00383644Y00454993D01*
X00385048Y00456926D01*
X00359648Y00456926D02*
X00358244Y00458858D01*
X00355972Y00458120D01*
Y00455731D01*
X00358244Y00454993D01*
X00359648Y00456926D01*
X00334248Y00456926D02*
X00332844Y00458858D01*
X00330572Y00458120D01*
Y00455731D01*
X00332844Y00454993D01*
X00334248Y00456926D01*
X00461248Y00431525D02*
X00459844Y00433458D01*
X00457572Y00432720D01*
Y00430331D01*
X00459844Y00429593D01*
X00461248Y00431525D01*
X00435848Y00431525D02*
X00434444Y00433458D01*
X00432172Y00432720D01*
Y00430331D01*
X00434444Y00429593D01*
X00435848Y00431525D01*
X00410448Y00431525D02*
X00409044Y00433458D01*
X00406772Y00432720D01*
Y00430331D01*
X00409044Y00429593D01*
X00410448Y00431525D01*
X00385048D02*
X00383644Y00433458D01*
X00381372Y00432720D01*
Y00430331D01*
X00383644Y00429593D01*
X00385048Y00431525D01*
X00359648D02*
X00358244Y00433458D01*
X00355972Y00432720D01*
Y00430331D01*
X00358244Y00429593D01*
X00359648Y00431525D01*
X00334248D02*
X00332844Y00433458D01*
X00330572Y00432720D01*
Y00430331D01*
X00332844Y00429593D01*
X00334248Y00431525D01*
X00551434Y01088644D02*
X00550030Y01090577D01*
X00547758Y01089838D01*
Y01087450D01*
X00550030Y01086711D01*
X00551434Y01088644D01*
Y01063244D02*
X00550030Y01065177D01*
X00547758Y01064438D01*
Y01062050D01*
X00550030Y01061311D01*
X00551434Y01063244D01*
X00526034Y01088644D02*
X00524630Y01090577D01*
X00522358Y01089838D01*
Y01087450D01*
X00524630Y01086711D01*
X00526034Y01088644D01*
Y01063244D02*
X00524630Y01065177D01*
X00522358Y01064438D01*
Y01062050D01*
X00524630Y01061311D01*
X00526034Y01063244D01*
X00360512Y01174750D02*
X00359108Y01176683D01*
X00356836Y01175944D01*
Y01173556D01*
X00359108Y01172817D01*
X00360512Y01174750D01*
X00335112Y01174750D02*
X00333708Y01176683D01*
X00331436Y01175944D01*
Y01173556D01*
X00333708Y01172817D01*
X00335112Y01174750D01*
X00360512Y01200150D02*
X00359108Y01202083D01*
X00356836Y01201344D01*
Y01198956D01*
X00359108Y01198217D01*
X00360512Y01200150D01*
X00335112D02*
X00333708Y01202083D01*
X00331436Y01201344D01*
Y01198956D01*
X00333708Y01198217D01*
X00335112Y01200150D01*
X00360512Y01225550D02*
X00359108Y01227483D01*
X00356836Y01226744D01*
Y01224356D01*
X00359108Y01223617D01*
X00360512Y01225550D01*
X00335112D02*
X00333708Y01227483D01*
X00331436Y01226744D01*
Y01224356D01*
X00333708Y01223617D01*
X00335112Y01225550D01*
M02*
