G04*
G04 #@! TF.GenerationSoftware,Altium Limited,Altium Designer,21.1.1 (26)*
G04*
G04 Layer_Color=8421504*
%FSAX44Y44*%
%MOMM*%
G71*
G04*
G04 #@! TF.SameCoordinates,7C830176-F0F4-4CA8-9266-6C2C436D825E*
G04*
G04*
G04 #@! TF.FilePolarity,Positive*
G04*
G01*
G75*
G04:AMPARAMS|DCode=20|XSize=1.2mm|YSize=1.4mm|CornerRadius=0mm|HoleSize=0mm|Usage=FLASHONLY|Rotation=45.000|XOffset=0mm|YOffset=0mm|HoleType=Round|Shape=Rectangle|*
%AMROTATEDRECTD20*
4,1,4,0.0707,-0.9192,-0.9192,0.0707,-0.0707,0.9192,0.9192,-0.0707,0.0707,-0.9192,0.0*
%
%ADD20ROTATEDRECTD20*%

%ADD21R,1.1000X1.9000*%
%ADD22R,1.3000X1.5500*%
%ADD23R,0.8900X0.9300*%
%ADD24R,0.5250X0.5000*%
%ADD25R,0.2500X0.5000*%
%ADD26R,1.9000X1.9000*%
%ADD27R,0.2540X1.7780*%
%ADD28R,0.5000X0.4750*%
%ADD29R,1.0500X1.7000*%
G04:AMPARAMS|DCode=30|XSize=0.6mm|YSize=0.54mm|CornerRadius=0.1431mm|HoleSize=0mm|Usage=FLASHONLY|Rotation=0.000|XOffset=0mm|YOffset=0mm|HoleType=Round|Shape=RoundedRectangle|*
%AMROUNDEDRECTD30*
21,1,0.6000,0.2538,0,0,0.0*
21,1,0.3138,0.5400,0,0,0.0*
1,1,0.2862,0.1569,-0.1269*
1,1,0.2862,-0.1569,-0.1269*
1,1,0.2862,-0.1569,0.1269*
1,1,0.2862,0.1569,0.1269*
%
%ADD30ROUNDEDRECTD30*%
%ADD31R,0.9300X0.8900*%
%ADD32R,3.3000X2.4000*%
%ADD33R,1.0000X2.4000*%
%ADD34R,1.1200X1.2400*%
G04:AMPARAMS|DCode=35|XSize=1.475mm|YSize=0.3mm|CornerRadius=0mm|HoleSize=0mm|Usage=FLASHONLY|Rotation=135.000|XOffset=0mm|YOffset=0mm|HoleType=Round|Shape=Rectangle|*
%AMROTATEDRECTD35*
4,1,4,0.6276,-0.4154,0.4154,-0.6276,-0.6276,0.4154,-0.4154,0.6276,0.6276,-0.4154,0.0*
%
%ADD35ROTATEDRECTD35*%

G04:AMPARAMS|DCode=36|XSize=1.475mm|YSize=0.3mm|CornerRadius=0mm|HoleSize=0mm|Usage=FLASHONLY|Rotation=225.000|XOffset=0mm|YOffset=0mm|HoleType=Round|Shape=Rectangle|*
%AMROTATEDRECTD36*
4,1,4,0.4154,0.6276,0.6276,0.4154,-0.4154,-0.6276,-0.6276,-0.4154,0.4154,0.6276,0.0*
%
%ADD36ROTATEDRECTD36*%

%ADD37R,1.0000X1.1000*%
D20*
X00342430Y00793108D02*
D03*
X00326873Y00808664D02*
D03*
X00338894Y00820685D02*
D03*
X00354450Y00805129D02*
D03*
D21*
X00418022Y00683005D02*
D03*
X00393022D02*
D03*
D22*
X00526230Y00550038D02*
D03*
Y00629538D02*
D03*
X00481230Y00550038D02*
D03*
Y00629538D02*
D03*
X00644552Y01069974D02*
D03*
Y00990474D02*
D03*
X00689552Y01069974D02*
D03*
Y00990474D02*
D03*
D23*
X00557578Y00480568D02*
D03*
X00572898D02*
D03*
D24*
X00567210Y01391776D02*
D03*
X00549450Y01391776D02*
D03*
Y01382776D02*
D03*
X00567210D02*
D03*
D25*
X00560830Y01391776D02*
D03*
X00555830D02*
D03*
Y01382776D02*
D03*
X00560830D02*
D03*
D26*
X00364119Y00444754D02*
D03*
X00443119D02*
D03*
X00681420Y01493660D02*
D03*
X00602420D02*
D03*
D27*
X00390919Y00474432D02*
D03*
X00397119D02*
D03*
X00403619D02*
D03*
X00410119Y00474432D02*
D03*
X00416619Y00474432D02*
D03*
X00654620Y01463982D02*
D03*
X00648420Y01463982D02*
D03*
X00641920D02*
D03*
X00635420Y01463982D02*
D03*
X00628920D02*
D03*
D28*
X00530318Y01145551D02*
D03*
Y01155791D02*
D03*
X00389001Y01440321D02*
D03*
Y01430081D02*
D03*
X00340119Y01440321D02*
D03*
Y01430081D02*
D03*
D29*
X00355912Y01463116D02*
D03*
Y01436116D02*
D03*
X00372412Y01463116D02*
D03*
Y01436116D02*
D03*
D30*
X00373682Y01499634D02*
D03*
Y01508234D02*
D03*
X00500428Y01498872D02*
D03*
Y01507472D02*
D03*
D31*
X00389274Y01490148D02*
D03*
X00389274Y01505468D02*
D03*
X00482902Y01490402D02*
D03*
X00482902Y01505722D02*
D03*
X00581962Y01480312D02*
D03*
Y01495632D02*
D03*
D32*
X00435717Y01439918D02*
D03*
D33*
X00458717Y01497918D02*
D03*
X00435717Y01497918D02*
D03*
X00412717Y01497918D02*
D03*
D34*
X00485509Y01432800D02*
D03*
Y01462800D02*
D03*
D35*
X00519645Y01338864D02*
D03*
X00516109Y01335329D02*
D03*
X00512573Y01331793D02*
D03*
X00509038Y01328258D02*
D03*
X00505502Y01324722D02*
D03*
X00501967Y01321187D02*
D03*
X00498431Y01317651D02*
D03*
X00494896Y01314116D02*
D03*
X00491360Y01310580D02*
D03*
X00487825Y01307045D02*
D03*
X00484289Y01303509D02*
D03*
X00480754Y01299973D02*
D03*
X00477218Y01296438D02*
D03*
X00473683Y01292902D02*
D03*
X00470147Y01289367D02*
D03*
X00466612Y01285831D02*
D03*
X00547759Y01204684D02*
D03*
X00551295Y01208219D02*
D03*
X00554830Y01211755D02*
D03*
X00558366Y01215290D02*
D03*
X00561901Y01218826D02*
D03*
X00565437Y01222361D02*
D03*
X00568972Y01225897D02*
D03*
X00572508Y01229433D02*
D03*
X00576043Y01232968D02*
D03*
X00579579Y01236504D02*
D03*
X00583114Y01240039D02*
D03*
X00586650Y01243575D02*
D03*
X00590186Y01247110D02*
D03*
X00593721Y01250646D02*
D03*
X00597257Y01254181D02*
D03*
X00600792Y01257717D02*
D03*
X00406932Y00898159D02*
D03*
X00410468Y00901695D02*
D03*
X00414003Y00905230D02*
D03*
X00417539Y00908766D02*
D03*
X00421075Y00912301D02*
D03*
X00424610Y00915837D02*
D03*
X00428146Y00919373D02*
D03*
X00431681Y00922908D02*
D03*
X00435217Y00926444D02*
D03*
X00438752Y00929979D02*
D03*
X00442288Y00933515D02*
D03*
X00445823Y00937050D02*
D03*
X00449359Y00940586D02*
D03*
X00452894Y00944121D02*
D03*
X00456430Y00947657D02*
D03*
X00459966Y00951192D02*
D03*
X00463501Y00954728D02*
D03*
X00467037Y00958263D02*
D03*
X00470572Y00961799D02*
D03*
X00474108Y00965334D02*
D03*
X00477643Y00968870D02*
D03*
X00481179Y00972406D02*
D03*
X00484714Y00975941D02*
D03*
X00488250Y00979477D02*
D03*
X00491785Y00983012D02*
D03*
X00601217Y00873580D02*
D03*
X00597682Y00870045D02*
D03*
X00594146Y00866509D02*
D03*
X00590611Y00862974D02*
D03*
X00587075Y00859438D02*
D03*
X00583540Y00855903D02*
D03*
X00580004Y00852367D02*
D03*
X00576468Y00848832D02*
D03*
X00572933Y00845296D02*
D03*
X00569397Y00841760D02*
D03*
X00565862Y00838225D02*
D03*
X00562326Y00834689D02*
D03*
X00558791Y00831154D02*
D03*
X00555255Y00827618D02*
D03*
X00551720Y00824083D02*
D03*
X00548184Y00820547D02*
D03*
X00544649Y00817012D02*
D03*
X00541113Y00813476D02*
D03*
X00537578Y00809941D02*
D03*
X00534042Y00806405D02*
D03*
X00530507Y00802870D02*
D03*
X00526971Y00799334D02*
D03*
X00523435Y00795799D02*
D03*
X00519900Y00792263D02*
D03*
X00516364Y00788727D02*
D03*
D36*
X00466612Y01257717D02*
D03*
X00470147Y01254181D02*
D03*
X00473683Y01250646D02*
D03*
X00477218Y01247110D02*
D03*
X00480754Y01243575D02*
D03*
X00484289Y01240039D02*
D03*
X00487825Y01236504D02*
D03*
X00491360Y01232968D02*
D03*
X00494896Y01229433D02*
D03*
X00498431Y01225897D02*
D03*
X00501967Y01222361D02*
D03*
X00505502Y01218826D02*
D03*
X00509038Y01215290D02*
D03*
X00512573Y01211755D02*
D03*
X00516109Y01208219D02*
D03*
X00519645Y01204684D02*
D03*
X00600792Y01285831D02*
D03*
X00597257Y01289367D02*
D03*
X00593721Y01292902D02*
D03*
X00590186Y01296438D02*
D03*
X00586650Y01299973D02*
D03*
X00583114Y01303509D02*
D03*
X00579579Y01307045D02*
D03*
X00576043Y01310580D02*
D03*
X00572508Y01314116D02*
D03*
X00568972Y01317651D02*
D03*
X00565437Y01321187D02*
D03*
X00561901Y01324722D02*
D03*
X00558366Y01328258D02*
D03*
X00554830Y01331793D02*
D03*
X00551295Y01335329D02*
D03*
X00547759Y01338864D02*
D03*
X00491785Y00788727D02*
D03*
X00488250Y00792263D02*
D03*
X00484714Y00795799D02*
D03*
X00481179Y00799334D02*
D03*
X00477643Y00802870D02*
D03*
X00474108Y00806405D02*
D03*
X00470572Y00809941D02*
D03*
X00467037Y00813476D02*
D03*
X00463501Y00817012D02*
D03*
X00459966Y00820547D02*
D03*
X00456430Y00824083D02*
D03*
X00452894Y00827618D02*
D03*
X00449359Y00831154D02*
D03*
X00445823Y00834689D02*
D03*
X00442288Y00838225D02*
D03*
X00438752Y00841760D02*
D03*
X00435217Y00845296D02*
D03*
X00431681Y00848832D02*
D03*
X00428146Y00852367D02*
D03*
X00424610Y00855903D02*
D03*
X00421075Y00859438D02*
D03*
X00417539Y00862974D02*
D03*
X00414003Y00866509D02*
D03*
X00410468Y00870045D02*
D03*
X00406932Y00873580D02*
D03*
X00516364Y00983012D02*
D03*
X00519900Y00979477D02*
D03*
X00523435Y00975941D02*
D03*
X00526971Y00972406D02*
D03*
X00530507Y00968870D02*
D03*
X00534042Y00965334D02*
D03*
X00537578Y00961799D02*
D03*
X00541113Y00958263D02*
D03*
X00544649Y00954728D02*
D03*
X00548184Y00951192D02*
D03*
X00551720Y00947657D02*
D03*
X00555255Y00944121D02*
D03*
X00558791Y00940586D02*
D03*
X00562326Y00937050D02*
D03*
X00565862Y00933515D02*
D03*
X00569397Y00929979D02*
D03*
X00572933Y00926444D02*
D03*
X00576468Y00922908D02*
D03*
X00580004Y00919373D02*
D03*
X00583540Y00915837D02*
D03*
X00587075Y00912301D02*
D03*
X00590611Y00908766D02*
D03*
X00594146Y00905230D02*
D03*
X00597682Y00901695D02*
D03*
X00601217Y00898159D02*
D03*
D37*
X00516510Y01148676D02*
D03*
Y01165676D02*
D03*
M02*
