G04*
G04 #@! TF.GenerationSoftware,Altium Limited,Altium Designer,21.1.1 (26)*
G04*
G04 Layer_Color=8388736*
%FSAX44Y44*%
%MOMM*%
G71*
G04*
G04 #@! TF.SameCoordinates,7C830176-F0F4-4CA8-9266-6C2C436D825E*
G04*
G04*
G04 #@! TF.FilePolarity,Negative*
G04*
G01*
G75*
G04:AMPARAMS|DCode=38|XSize=1.4032mm|YSize=1.6032mm|CornerRadius=0mm|HoleSize=0mm|Usage=FLASHONLY|Rotation=45.000|XOffset=0mm|YOffset=0mm|HoleType=Round|Shape=Rectangle|*
%AMROTATEDRECTD38*
4,1,4,0.0707,-1.0629,-1.0629,0.0707,-0.0707,1.0629,1.0629,-0.0707,0.0707,-1.0629,0.0*
%
%ADD38ROTATEDRECTD38*%

%ADD39R,1.3032X2.1032*%
%ADD40R,1.5032X1.7532*%
%ADD41R,1.0932X1.1332*%
%ADD42R,0.7282X0.7032*%
%ADD43R,0.4532X0.7032*%
%ADD44R,2.1032X2.1032*%
%ADD45R,0.4572X1.9812*%
%ADD46R,0.7032X0.6782*%
%ADD47R,1.2532X1.9032*%
G04:AMPARAMS|DCode=48|XSize=0.8032mm|YSize=0.7432mm|CornerRadius=0.2447mm|HoleSize=0mm|Usage=FLASHONLY|Rotation=0.000|XOffset=0mm|YOffset=0mm|HoleType=Round|Shape=RoundedRectangle|*
%AMROUNDEDRECTD48*
21,1,0.8032,0.2538,0,0,0.0*
21,1,0.3138,0.7432,0,0,0.0*
1,1,0.4894,0.1569,-0.1269*
1,1,0.4894,-0.1569,-0.1269*
1,1,0.4894,-0.1569,0.1269*
1,1,0.4894,0.1569,0.1269*
%
%ADD48ROUNDEDRECTD48*%
%ADD49R,1.1332X1.0932*%
%ADD50R,3.5032X2.6032*%
%ADD51R,1.2032X2.6032*%
%ADD52R,1.3232X1.4432*%
G04:AMPARAMS|DCode=53|XSize=1.6782mm|YSize=0.5032mm|CornerRadius=0mm|HoleSize=0mm|Usage=FLASHONLY|Rotation=135.000|XOffset=0mm|YOffset=0mm|HoleType=Round|Shape=Rectangle|*
%AMROTATEDRECTD53*
4,1,4,0.7712,-0.4154,0.4154,-0.7712,-0.7712,0.4154,-0.4154,0.7712,0.7712,-0.4154,0.0*
%
%ADD53ROTATEDRECTD53*%

G04:AMPARAMS|DCode=54|XSize=1.6782mm|YSize=0.5032mm|CornerRadius=0mm|HoleSize=0mm|Usage=FLASHONLY|Rotation=225.000|XOffset=0mm|YOffset=0mm|HoleType=Round|Shape=Rectangle|*
%AMROTATEDRECTD54*
4,1,4,0.4154,0.7712,0.7712,0.4154,-0.4154,-0.7712,-0.7712,-0.4154,0.4154,0.7712,0.0*
%
%ADD54ROTATEDRECTD54*%

%ADD55R,1.2032X1.3032*%
%ADD56R,1.8032X1.8032*%
%ADD57C,1.8032*%
%ADD58C,1.7032*%
%ADD59R,1.7032X1.7032*%
%ADD60R,1.3632X1.3632*%
%ADD61C,1.3632*%
%ADD62O,2.4892X2.1082*%
%ADD63R,2.4892X2.1082*%
%ADD64R,1.7032X1.7032*%
D38*
X00342430Y00793108D02*
D03*
X00326873Y00808664D02*
D03*
X00338894Y00820685D02*
D03*
X00354450Y00805129D02*
D03*
D39*
X00418022Y00683005D02*
D03*
X00393022D02*
D03*
D40*
X00526230Y00550038D02*
D03*
Y00629538D02*
D03*
X00481230Y00550038D02*
D03*
Y00629538D02*
D03*
X00644552Y01069974D02*
D03*
Y00990474D02*
D03*
X00689552Y01069974D02*
D03*
Y00990474D02*
D03*
D41*
X00557578Y00480568D02*
D03*
X00572898D02*
D03*
D42*
X00567210Y01391776D02*
D03*
X00549450Y01391776D02*
D03*
Y01382776D02*
D03*
X00567210D02*
D03*
D43*
X00560830Y01391776D02*
D03*
X00555830D02*
D03*
Y01382776D02*
D03*
X00560830D02*
D03*
D44*
X00364119Y00444754D02*
D03*
X00443119D02*
D03*
X00681420Y01493660D02*
D03*
X00602420D02*
D03*
D45*
X00390919Y00474432D02*
D03*
X00397119D02*
D03*
X00403619D02*
D03*
X00410119Y00474432D02*
D03*
X00416619Y00474432D02*
D03*
X00654620Y01463982D02*
D03*
X00648420Y01463982D02*
D03*
X00641920D02*
D03*
X00635420Y01463982D02*
D03*
X00628920D02*
D03*
D46*
X00530318Y01145551D02*
D03*
Y01155791D02*
D03*
X00389001Y01440321D02*
D03*
Y01430081D02*
D03*
X00340119Y01440321D02*
D03*
Y01430081D02*
D03*
D47*
X00355912Y01463116D02*
D03*
Y01436116D02*
D03*
X00372412Y01463116D02*
D03*
Y01436116D02*
D03*
D48*
X00373682Y01499634D02*
D03*
Y01508234D02*
D03*
X00500428Y01498872D02*
D03*
Y01507472D02*
D03*
D49*
X00389274Y01490148D02*
D03*
X00389274Y01505468D02*
D03*
X00482902Y01490402D02*
D03*
X00482902Y01505722D02*
D03*
X00581962Y01480312D02*
D03*
Y01495632D02*
D03*
D50*
X00435717Y01439918D02*
D03*
D51*
X00458717Y01497918D02*
D03*
X00435717Y01497918D02*
D03*
X00412717Y01497918D02*
D03*
D52*
X00485509Y01432800D02*
D03*
Y01462800D02*
D03*
D53*
X00519645Y01338864D02*
D03*
X00516109Y01335329D02*
D03*
X00512573Y01331793D02*
D03*
X00509038Y01328258D02*
D03*
X00505502Y01324722D02*
D03*
X00501967Y01321187D02*
D03*
X00498431Y01317651D02*
D03*
X00494896Y01314116D02*
D03*
X00491360Y01310580D02*
D03*
X00487825Y01307045D02*
D03*
X00484289Y01303509D02*
D03*
X00480754Y01299973D02*
D03*
X00477218Y01296438D02*
D03*
X00473683Y01292902D02*
D03*
X00470147Y01289367D02*
D03*
X00466612Y01285831D02*
D03*
X00547759Y01204684D02*
D03*
X00551295Y01208219D02*
D03*
X00554830Y01211755D02*
D03*
X00558366Y01215290D02*
D03*
X00561901Y01218826D02*
D03*
X00565437Y01222361D02*
D03*
X00568972Y01225897D02*
D03*
X00572508Y01229433D02*
D03*
X00576043Y01232968D02*
D03*
X00579579Y01236504D02*
D03*
X00583114Y01240039D02*
D03*
X00586650Y01243575D02*
D03*
X00590186Y01247110D02*
D03*
X00593721Y01250646D02*
D03*
X00597257Y01254181D02*
D03*
X00600792Y01257717D02*
D03*
X00406932Y00898159D02*
D03*
X00410468Y00901695D02*
D03*
X00414003Y00905230D02*
D03*
X00417539Y00908766D02*
D03*
X00421075Y00912301D02*
D03*
X00424610Y00915837D02*
D03*
X00428146Y00919373D02*
D03*
X00431681Y00922908D02*
D03*
X00435217Y00926444D02*
D03*
X00438752Y00929979D02*
D03*
X00442288Y00933515D02*
D03*
X00445823Y00937050D02*
D03*
X00449359Y00940586D02*
D03*
X00452894Y00944121D02*
D03*
X00456430Y00947657D02*
D03*
X00459966Y00951192D02*
D03*
X00463501Y00954728D02*
D03*
X00467037Y00958263D02*
D03*
X00470572Y00961799D02*
D03*
X00474108Y00965334D02*
D03*
X00477643Y00968870D02*
D03*
X00481179Y00972406D02*
D03*
X00484714Y00975941D02*
D03*
X00488250Y00979477D02*
D03*
X00491785Y00983012D02*
D03*
X00601217Y00873580D02*
D03*
X00597682Y00870045D02*
D03*
X00594146Y00866509D02*
D03*
X00590611Y00862974D02*
D03*
X00587075Y00859438D02*
D03*
X00583540Y00855903D02*
D03*
X00580004Y00852367D02*
D03*
X00576468Y00848832D02*
D03*
X00572933Y00845296D02*
D03*
X00569397Y00841760D02*
D03*
X00565862Y00838225D02*
D03*
X00562326Y00834689D02*
D03*
X00558791Y00831154D02*
D03*
X00555255Y00827618D02*
D03*
X00551720Y00824083D02*
D03*
X00548184Y00820547D02*
D03*
X00544649Y00817012D02*
D03*
X00541113Y00813476D02*
D03*
X00537578Y00809941D02*
D03*
X00534042Y00806405D02*
D03*
X00530507Y00802870D02*
D03*
X00526971Y00799334D02*
D03*
X00523435Y00795799D02*
D03*
X00519900Y00792263D02*
D03*
X00516364Y00788727D02*
D03*
D54*
X00466612Y01257717D02*
D03*
X00470147Y01254181D02*
D03*
X00473683Y01250646D02*
D03*
X00477218Y01247110D02*
D03*
X00480754Y01243575D02*
D03*
X00484289Y01240039D02*
D03*
X00487825Y01236504D02*
D03*
X00491360Y01232968D02*
D03*
X00494896Y01229433D02*
D03*
X00498431Y01225897D02*
D03*
X00501967Y01222361D02*
D03*
X00505502Y01218826D02*
D03*
X00509038Y01215290D02*
D03*
X00512573Y01211755D02*
D03*
X00516109Y01208219D02*
D03*
X00519645Y01204684D02*
D03*
X00600792Y01285831D02*
D03*
X00597257Y01289367D02*
D03*
X00593721Y01292902D02*
D03*
X00590186Y01296438D02*
D03*
X00586650Y01299973D02*
D03*
X00583114Y01303509D02*
D03*
X00579579Y01307045D02*
D03*
X00576043Y01310580D02*
D03*
X00572508Y01314116D02*
D03*
X00568972Y01317651D02*
D03*
X00565437Y01321187D02*
D03*
X00561901Y01324722D02*
D03*
X00558366Y01328258D02*
D03*
X00554830Y01331793D02*
D03*
X00551295Y01335329D02*
D03*
X00547759Y01338864D02*
D03*
X00491785Y00788727D02*
D03*
X00488250Y00792263D02*
D03*
X00484714Y00795799D02*
D03*
X00481179Y00799334D02*
D03*
X00477643Y00802870D02*
D03*
X00474108Y00806405D02*
D03*
X00470572Y00809941D02*
D03*
X00467037Y00813476D02*
D03*
X00463501Y00817012D02*
D03*
X00459966Y00820547D02*
D03*
X00456430Y00824083D02*
D03*
X00452894Y00827618D02*
D03*
X00449359Y00831154D02*
D03*
X00445823Y00834689D02*
D03*
X00442288Y00838225D02*
D03*
X00438752Y00841760D02*
D03*
X00435217Y00845296D02*
D03*
X00431681Y00848832D02*
D03*
X00428146Y00852367D02*
D03*
X00424610Y00855903D02*
D03*
X00421075Y00859438D02*
D03*
X00417539Y00862974D02*
D03*
X00414003Y00866509D02*
D03*
X00410468Y00870045D02*
D03*
X00406932Y00873580D02*
D03*
X00516364Y00983012D02*
D03*
X00519900Y00979477D02*
D03*
X00523435Y00975941D02*
D03*
X00526971Y00972406D02*
D03*
X00530507Y00968870D02*
D03*
X00534042Y00965334D02*
D03*
X00537578Y00961799D02*
D03*
X00541113Y00958263D02*
D03*
X00544649Y00954728D02*
D03*
X00548184Y00951192D02*
D03*
X00551720Y00947657D02*
D03*
X00555255Y00944121D02*
D03*
X00558791Y00940586D02*
D03*
X00562326Y00937050D02*
D03*
X00565862Y00933515D02*
D03*
X00569397Y00929979D02*
D03*
X00572933Y00926444D02*
D03*
X00576468Y00922908D02*
D03*
X00580004Y00919373D02*
D03*
X00583540Y00915837D02*
D03*
X00587075Y00912301D02*
D03*
X00590611Y00908766D02*
D03*
X00594146Y00905230D02*
D03*
X00597682Y00901695D02*
D03*
X00601217Y00898159D02*
D03*
D55*
X00516510Y01148676D02*
D03*
Y01165676D02*
D03*
D56*
X00392478Y01135634D02*
D03*
X00736648Y00433578D02*
D03*
X00288592Y00434848D02*
D03*
X00736648Y00977646D02*
D03*
X00288592Y00979932D02*
D03*
D57*
X00392478Y01161034D02*
D03*
X00392478Y01186434D02*
D03*
X00392478Y01211834D02*
D03*
Y01237234D02*
D03*
X00417878D02*
D03*
Y01211834D02*
D03*
X00417878Y01186434D02*
D03*
X00417878Y01161034D02*
D03*
Y01135634D02*
D03*
X00736648Y00916178D02*
D03*
Y00890778D02*
D03*
Y00865378D02*
D03*
Y00839978D02*
D03*
Y00814578D02*
D03*
Y00789178D02*
D03*
Y00763778D02*
D03*
Y00738378D02*
D03*
Y00712978D02*
D03*
Y00687578D02*
D03*
Y00662178D02*
D03*
Y00636778D02*
D03*
Y00611378D02*
D03*
Y00585978D02*
D03*
Y00560578D02*
D03*
Y00535178D02*
D03*
Y00509778D02*
D03*
Y00484378D02*
D03*
Y00458978D02*
D03*
X00288592Y00917448D02*
D03*
Y00892048D02*
D03*
Y00866648D02*
D03*
Y00841248D02*
D03*
Y00815848D02*
D03*
Y00790448D02*
D03*
Y00765048D02*
D03*
Y00739648D02*
D03*
Y00714248D02*
D03*
Y00688848D02*
D03*
Y00663448D02*
D03*
Y00638048D02*
D03*
Y00612648D02*
D03*
Y00587248D02*
D03*
Y00561848D02*
D03*
Y00536448D02*
D03*
Y00511048D02*
D03*
Y00485648D02*
D03*
Y00460248D02*
D03*
X00736648Y01460246D02*
D03*
Y01434846D02*
D03*
Y01409446D02*
D03*
Y01384046D02*
D03*
Y01358646D02*
D03*
Y01333246D02*
D03*
Y01307846D02*
D03*
Y01282446D02*
D03*
Y01257046D02*
D03*
Y01231646D02*
D03*
Y01206246D02*
D03*
Y01180846D02*
D03*
Y01155446D02*
D03*
Y01130046D02*
D03*
Y01104646D02*
D03*
Y01079246D02*
D03*
Y01053846D02*
D03*
Y01028446D02*
D03*
Y01003046D02*
D03*
X00288592Y01462532D02*
D03*
Y01437132D02*
D03*
Y01411732D02*
D03*
Y01386332D02*
D03*
Y01360932D02*
D03*
Y01335532D02*
D03*
Y01310132D02*
D03*
Y01284732D02*
D03*
Y01259332D02*
D03*
Y01233932D02*
D03*
Y01208532D02*
D03*
Y01183132D02*
D03*
Y01157732D02*
D03*
Y01132332D02*
D03*
Y01106932D02*
D03*
Y01081532D02*
D03*
Y01056132D02*
D03*
Y01030732D02*
D03*
Y01005332D02*
D03*
D58*
X00562928Y00456926D02*
D03*
X00588328Y00456926D02*
D03*
X00613728Y00456926D02*
D03*
X00639128D02*
D03*
X00664528Y00456926D02*
D03*
X00689928Y00456926D02*
D03*
X00562928Y00431525D02*
D03*
X00588328Y00431525D02*
D03*
X00613728Y00431525D02*
D03*
X00639128D02*
D03*
X00664528D02*
D03*
X00472742Y01088644D02*
D03*
Y01063244D02*
D03*
X00498142Y01088644D02*
D03*
X00663664Y01174750D02*
D03*
X00689064Y01174750D02*
D03*
X00663664Y01200150D02*
D03*
X00689064D02*
D03*
X00663664Y01225550D02*
D03*
D59*
X00689928Y00431525D02*
D03*
X00498142Y01063244D02*
D03*
D60*
X00584178Y00704975D02*
D03*
D61*
X00609578D02*
D03*
X00634978D02*
D03*
D62*
X00688388Y00827786D02*
D03*
Y00903986D02*
D03*
Y00878586D02*
D03*
Y00853186D02*
D03*
Y00802386D02*
D03*
D63*
Y00929386D02*
D03*
D64*
X00689064Y01225550D02*
D03*
M02*
