M48
;Layer_Color=9474304
;FILE_FORMAT=4:4
METRIC,LZ
;TYPE=PLATED
T1F00S00C0.2540
T2F00S00C0.7600
T3F00S00C0.8636
T4F00S00C0.9000
T5F00S00C1.1000
%
T01
X00165608Y00104902
X00176784Y00101979
X00171704Y001143
X00196342Y00115824
X0023622Y00126492
X00292862Y00125984
X00296926Y00102362
X00345186Y00084074
X00358648Y0004699
X00352806Y000381
X00373888Y00051562
X00397256Y00049022
X00413512Y0008636
X00388874Y00132842
X00432562Y00188468
X00371856Y00235458
X00362966Y00287528
X00352806Y00288798
X00432943Y00332105
X00450088Y00347218
X00407924Y00375412
X0032131Y00381
X00232664Y00347218
X00235204Y00339598
X0017526Y00319532
X00164338Y0037592
X00296418Y00219456
X00239268Y00042164
X00089989Y00082223
X00075057Y00074295
X0005207Y00067818
X00044704Y0006096
X00056896Y0022225
X00097028Y00256286
X00120904Y00187452
X00119253Y00381381
X00128797Y00383064
X00107442Y00459994
X0010287Y0047625
X00134747Y00496697
X00131572Y00645668
X00072644Y00677164
X0019939Y00729996
X00211074Y00741934
X00229616Y0078232
X0026543Y00756412
X00268732Y00730504
X0031496Y00766826
X00169164Y0077724
X00245618Y00633222
X00244856Y00601472
X00285487Y006223
X00291338Y00618744
X00295402Y00526288
X00260858Y00536702
X00265176Y00508254
X00296926Y00481838
X00324358Y0048105
X00309626Y0044323
X0033147Y00424688
X0034036
X00349504Y00423164
X00344678Y00401574
X00325628Y0040513
X00277114Y00409448
X0025019Y00418084
X00213106Y00436626
X00198374Y00461264
X00171704Y00396748
X00149352Y0050673
X00154305Y00512572
X00142128Y00501777
X00180594Y00551434
X00178816Y00564642
X00226314Y00531044
X00325717Y00544741
X00327692Y0055372
X00362712Y00508
X00368046Y00501396
X00398526Y00403606
X00416052Y00420624
X00444754Y0041021
X00439674Y00893064
X00376936Y00896874
X00332232Y00860806
X00306578Y00858266
X0029845Y00825754
X00293878Y00807974
X00249174Y00849884
X00224536Y00877062
X00190246Y00875792
X00192532Y00866394
X00169418Y00861822
X00157734Y00827532
X00156718Y00812292
X00175006Y00808736
X00192512Y00799211
X00192024Y00926084
X00182118Y00924052
X00187198Y00972312
X00196596Y00993902
X00204216Y01047496
X00323596Y0101219
X0034671Y01064514
X0025654Y00943102
X00121143Y01021065
X00127643Y01029851
T02
X00153486Y00297051
X00178886
X00128086
T03
X00074676Y00394462
Y00419862
Y00445262
Y00470662
Y00496062
Y00521462
T04
X00149336Y00023602
Y00049001
X00174736Y00049001
X00200136Y00049001
X00200136Y00023602
X00174736Y00023602
X00123936Y00023602
Y00049001
X00098536Y00049001
X00073136Y00049001
Y00023602
X00098536
X000994Y00766826
X00074Y00766826
X00264922Y0068072
X00290322
Y0065532
X00264922
X000994Y00792226
X00074
Y00817626
X000994
T05
X00474472Y00026924
Y00052324
Y00077724
Y00103124
Y00128524
Y00153924
Y00179324
Y00204724
Y00230124
Y00255524
Y00280924
Y00306324
Y00331724
Y00357124
Y00382524
X00026416Y00381254
Y00355854
Y00330454
Y00305054
Y00279654
Y00254254
Y00228854
Y00203454
Y00178054
Y00152654
Y00127254
Y00101854
Y00076454
Y00051054
Y00025654
Y00406654
Y00432054
Y00457454
Y00482854
Y00508254
Y00569722
Y00595122
Y00620522
Y00645922
Y00671322
Y00696722
Y00722122
Y00747522
Y00772922
X00345186Y0077851
X00370586
X00370586Y0075311
Y0072771
X00345186
Y0075311
X00474472Y00749808
Y00775208
Y00724408
Y00699008
Y00673608
Y00648208
Y00622808
Y00597408
Y00572008
Y00509524
Y00484124
Y00458724
Y00433324
Y00407924
Y00800608
Y00826008
Y00851408
Y00876808
Y00902208
Y00927608
Y00953008
Y00978408
Y01003808
Y01029208
Y01054608
X00370586Y0082931
Y0080391
X00345186
Y0082931
X00026416Y00823722
Y00798322
Y00849122
Y00874522
Y00899922
Y00925322
Y00950722
Y00976122
Y01001522
Y01026922
Y01052322
M30
