G04*
G04 #@! TF.GenerationSoftware,Altium Limited,Altium Designer,21.1.1 (26)*
G04*
G04 Layer_Color=16711935*
%FSAX44Y44*%
%MOMM*%
G71*
G04*
G04 #@! TF.SameCoordinates,7C830176-F0F4-4CA8-9266-6C2C436D825E*
G04*
G04*
G04 #@! TF.FilePolarity,Negative*
G04*
G01*
G75*
%ADD41R,1.0932X1.1332*%
%ADD46R,0.7032X0.6782*%
G04:AMPARAMS|DCode=48|XSize=0.8032mm|YSize=0.7432mm|CornerRadius=0.2447mm|HoleSize=0mm|Usage=FLASHONLY|Rotation=0.000|XOffset=0mm|YOffset=0mm|HoleType=Round|Shape=RoundedRectangle|*
%AMROUNDEDRECTD48*
21,1,0.8032,0.2538,0,0,0.0*
21,1,0.3138,0.7432,0,0,0.0*
1,1,0.4894,0.1569,-0.1269*
1,1,0.4894,-0.1569,-0.1269*
1,1,0.4894,-0.1569,0.1269*
1,1,0.4894,0.1569,0.1269*
%
%ADD48ROUNDEDRECTD48*%
%ADD49R,1.1332X1.0932*%
%ADD56R,1.8032X1.8032*%
%ADD57C,1.8032*%
%ADD58C,1.7032*%
%ADD59R,1.7032X1.7032*%
%ADD60R,1.3632X1.3632*%
%ADD61C,1.3632*%
%ADD62O,2.4892X2.1082*%
%ADD63R,2.4892X2.1082*%
%ADD64R,1.7032X1.7032*%
%ADD82R,0.7032X0.7282*%
%ADD83R,0.7032X0.4532*%
%ADD84R,1.1332X1.0732*%
%ADD85R,0.9032X0.5032*%
G04:AMPARAMS|DCode=86|XSize=0.5832mm|YSize=0.6032mm|CornerRadius=0mm|HoleSize=0mm|Usage=FLASHONLY|Rotation=225.000|XOffset=0mm|YOffset=0mm|HoleType=Round|Shape=Rectangle|*
%AMROTATEDRECTD86*
4,1,4,-0.0071,0.4195,0.4195,-0.0071,0.0071,-0.4195,-0.4195,0.0071,-0.0071,0.4195,0.0*
%
%ADD86ROTATEDRECTD86*%

G04:AMPARAMS|DCode=87|XSize=0.5832mm|YSize=0.6032mm|CornerRadius=0.1491mm|HoleSize=0mm|Usage=FLASHONLY|Rotation=225.000|XOffset=0mm|YOffset=0mm|HoleType=Round|Shape=RoundedRectangle|*
%AMROUNDEDRECTD87*
21,1,0.5832,0.3050,0,0,225.0*
21,1,0.2850,0.6032,0,0,225.0*
1,1,0.2982,-0.2086,0.0071*
1,1,0.2982,-0.0071,0.2086*
1,1,0.2982,0.2086,-0.0071*
1,1,0.2982,0.0071,-0.2086*
%
%ADD87ROUNDEDRECTD87*%
D41*
X00582338Y00541726D02*
D03*
X00567018D02*
D03*
X00582338Y00559068D02*
D03*
X00567018D02*
D03*
X00582338Y00576411D02*
D03*
X00567018Y00576411D02*
D03*
X00582338Y00593753D02*
D03*
X00567018D02*
D03*
X00582338Y00611096D02*
D03*
X00567018D02*
D03*
X00582338Y00628438D02*
D03*
X00567018D02*
D03*
X00582338Y00645781D02*
D03*
X00567018Y00645781D02*
D03*
X00582338Y00663123D02*
D03*
X00567018D02*
D03*
X00582338Y00680466D02*
D03*
X00567018D02*
D03*
X00651436Y01276976D02*
D03*
X00666756D02*
D03*
X00651436Y01293388D02*
D03*
X00666756D02*
D03*
X00651436Y01309800D02*
D03*
X00666756D02*
D03*
D46*
X00413258Y00613961D02*
D03*
Y00603721D02*
D03*
X00607362Y01202396D02*
D03*
Y01212636D02*
D03*
X00390534Y01270214D02*
D03*
Y01280454D02*
D03*
X00377492D02*
D03*
Y01270214D02*
D03*
X00656590Y01098002D02*
D03*
Y01108242D02*
D03*
D48*
X00398320Y00704106D02*
D03*
Y00712706D02*
D03*
X00412162Y00704106D02*
D03*
Y00712706D02*
D03*
X00525381Y00696338D02*
D03*
X00525381Y00687738D02*
D03*
X00348028Y00470172D02*
D03*
X00348028Y00478772D02*
D03*
X00465108Y00463568D02*
D03*
X00465108Y00472168D02*
D03*
X00513636Y00463568D02*
D03*
X00513636Y00472168D02*
D03*
D49*
X00398066Y00611886D02*
D03*
Y00596566D02*
D03*
X00565960Y00978662D02*
D03*
Y00993982D02*
D03*
X00641398Y01106170D02*
D03*
Y01090850D02*
D03*
X00565960Y01361694D02*
D03*
Y01346374D02*
D03*
X00380072Y01399286D02*
D03*
X00380072Y01383966D02*
D03*
X00445720Y01399286D02*
D03*
X00445720Y01383966D02*
D03*
X00462132Y01399286D02*
D03*
X00462132Y01383966D02*
D03*
X00478544Y01399286D02*
D03*
Y01383966D02*
D03*
X00661718Y00820246D02*
D03*
Y00804926D02*
D03*
X00664307Y00651976D02*
D03*
Y00636656D02*
D03*
X00396484Y01383966D02*
D03*
Y01399286D02*
D03*
X00412896Y01383966D02*
D03*
Y01399286D02*
D03*
X00429308Y01383966D02*
D03*
X00429308Y01399286D02*
D03*
X00432610Y00799672D02*
D03*
Y00784352D02*
D03*
D56*
X00392478Y01135634D02*
D03*
X00736648Y00433578D02*
D03*
X00288592Y00434848D02*
D03*
X00736648Y00977646D02*
D03*
X00288592Y00979932D02*
D03*
D57*
X00392478Y01161034D02*
D03*
X00392478Y01186434D02*
D03*
X00392478Y01211834D02*
D03*
Y01237234D02*
D03*
X00417878D02*
D03*
Y01211834D02*
D03*
X00417878Y01186434D02*
D03*
X00417878Y01161034D02*
D03*
Y01135634D02*
D03*
X00736648Y00916178D02*
D03*
Y00890778D02*
D03*
Y00865378D02*
D03*
Y00839978D02*
D03*
Y00814578D02*
D03*
Y00789178D02*
D03*
Y00763778D02*
D03*
Y00738378D02*
D03*
Y00712978D02*
D03*
Y00687578D02*
D03*
Y00662178D02*
D03*
Y00636778D02*
D03*
Y00611378D02*
D03*
Y00585978D02*
D03*
Y00560578D02*
D03*
Y00535178D02*
D03*
Y00509778D02*
D03*
Y00484378D02*
D03*
Y00458978D02*
D03*
X00288592Y00917448D02*
D03*
Y00892048D02*
D03*
Y00866648D02*
D03*
Y00841248D02*
D03*
Y00815848D02*
D03*
Y00790448D02*
D03*
Y00765048D02*
D03*
Y00739648D02*
D03*
Y00714248D02*
D03*
Y00688848D02*
D03*
Y00663448D02*
D03*
Y00638048D02*
D03*
Y00612648D02*
D03*
Y00587248D02*
D03*
Y00561848D02*
D03*
Y00536448D02*
D03*
Y00511048D02*
D03*
Y00485648D02*
D03*
Y00460248D02*
D03*
X00736648Y01460246D02*
D03*
Y01434846D02*
D03*
Y01409446D02*
D03*
Y01384046D02*
D03*
Y01358646D02*
D03*
Y01333246D02*
D03*
Y01307846D02*
D03*
Y01282446D02*
D03*
Y01257046D02*
D03*
Y01231646D02*
D03*
Y01206246D02*
D03*
Y01180846D02*
D03*
Y01155446D02*
D03*
Y01130046D02*
D03*
Y01104646D02*
D03*
Y01079246D02*
D03*
Y01053846D02*
D03*
Y01028446D02*
D03*
Y01003046D02*
D03*
X00288592Y01462532D02*
D03*
Y01437132D02*
D03*
Y01411732D02*
D03*
Y01386332D02*
D03*
Y01360932D02*
D03*
Y01335532D02*
D03*
Y01310132D02*
D03*
Y01284732D02*
D03*
Y01259332D02*
D03*
Y01233932D02*
D03*
Y01208532D02*
D03*
Y01183132D02*
D03*
Y01157732D02*
D03*
Y01132332D02*
D03*
Y01106932D02*
D03*
Y01081532D02*
D03*
Y01056132D02*
D03*
Y01030732D02*
D03*
Y01005332D02*
D03*
D58*
X00562928Y00456926D02*
D03*
X00588328Y00456926D02*
D03*
X00613728Y00456926D02*
D03*
X00639128D02*
D03*
X00664528Y00456926D02*
D03*
X00689928Y00456926D02*
D03*
X00562928Y00431525D02*
D03*
X00588328Y00431525D02*
D03*
X00613728Y00431525D02*
D03*
X00639128D02*
D03*
X00664528D02*
D03*
X00472742Y01088644D02*
D03*
Y01063244D02*
D03*
X00498142Y01088644D02*
D03*
X00663664Y01174750D02*
D03*
X00689064Y01174750D02*
D03*
X00663664Y01200150D02*
D03*
X00689064D02*
D03*
X00663664Y01225550D02*
D03*
D59*
X00689928Y00431525D02*
D03*
X00498142Y01063244D02*
D03*
D60*
X00584178Y00704975D02*
D03*
D61*
X00609578D02*
D03*
X00634978D02*
D03*
D62*
X00688388Y00827786D02*
D03*
Y00903986D02*
D03*
Y00878586D02*
D03*
Y00853186D02*
D03*
Y00802386D02*
D03*
D63*
Y00929386D02*
D03*
D64*
X00689064Y01225550D02*
D03*
D82*
X00378220Y00483860D02*
D03*
Y00466100D02*
D03*
X00369220D02*
D03*
Y00483860D02*
D03*
D83*
X00378220Y00477480D02*
D03*
Y00472480D02*
D03*
X00369220D02*
D03*
Y00477480D02*
D03*
D84*
X00449628Y01073474D02*
D03*
Y01088574D02*
D03*
X00480701Y00470518D02*
D03*
Y00455418D02*
D03*
X00498043Y00470518D02*
D03*
Y00455418D02*
D03*
X00518970Y01088574D02*
D03*
Y01073474D02*
D03*
X00466900Y00922966D02*
D03*
Y00907866D02*
D03*
D85*
X00487220Y00485648D02*
D03*
Y00491148D02*
D03*
X00474720Y00491148D02*
D03*
Y00485648D02*
D03*
D86*
X00361288Y00788976D02*
D03*
X00326692Y00832104D02*
D03*
D87*
X00365248Y00792936D02*
D03*
X00322732Y00828144D02*
D03*
M02*
