G04*
G04 #@! TF.GenerationSoftware,Altium Limited,Altium Designer,21.1.1 (26)*
G04*
G04 Layer_Color=16711935*
%FSAX44Y44*%
%MOMM*%
G71*
G04*
G04 #@! TF.SameCoordinates,7C830176-F0F4-4CA8-9266-6C2C436D825E*
G04*
G04*
G04 #@! TF.FilePolarity,Positive*
G04*
G01*
G75*
%ADD10C,0.2000*%
%ADD15C,0.1270*%
%ADD17C,0.1000*%
%ADD88C,0.1016*%
G36*
X00521216Y01148873D02*
Y01153869D01*
X00511709D01*
Y01148873D01*
X00521216D01*
D02*
G37*
G36*
X00521223Y01160557D02*
Y01165584D01*
X00511709D01*
Y01160557D01*
X00521223D01*
D02*
G37*
D10*
X00331884Y00783562D02*
X00333884D01*
X00331884D01*
X00558578Y00704275D02*
X00560578D01*
X00558578D01*
X00494970Y00485398D02*
X00496970D01*
X00494970D01*
D15*
X00565128Y00676275D02*
X00565200Y00673737D01*
X00565418Y00671208D01*
X00565779Y00668695D01*
X00566283Y00666207D01*
X00566928Y00663752D01*
X00567713Y00661338D01*
X00568634Y00658972D01*
X00569688Y00656663D01*
X00570873Y00654417D01*
X00572184Y00652243D01*
X00573617Y00650148D01*
X00575167Y00648138D01*
X00576830Y00646219D01*
X00578599Y00644398D01*
X00580469Y00642682D01*
X00582434Y00641075D01*
X00584488Y00639583D01*
X00586624Y00638210D01*
X00588834Y00636962D01*
X00591113Y00635842D01*
X00593451Y00634854D01*
X00595842Y00634001D01*
X00598278Y00633285D01*
X00600750Y00632710D01*
X00603252Y00632277D01*
X00605774Y00631988D01*
X00608308Y00631843D01*
X00610847D01*
X00613382Y00631988D01*
X00615904Y00632277D01*
X00618405Y00632710D01*
X00620878Y00633285D01*
X00623313Y00634001D01*
X00625704Y00634854D01*
X00628043Y00635842D01*
X00630321Y00636962D01*
X00632532Y00638210D01*
X00634667Y00639583D01*
X00636721Y00641075D01*
X00638686Y00642682D01*
X00640557Y00644398D01*
X00642326Y00646219D01*
X00643988Y00648138D01*
X00645539Y00650148D01*
X00646972Y00652243D01*
X00648282Y00654417D01*
X00649467Y00656663D01*
X00650522Y00658972D01*
X00651443Y00661338D01*
X00652227Y00663752D01*
X00652873Y00666207D01*
X00653377Y00668695D01*
X00653738Y00671208D01*
X00653955Y00673737D01*
X00654028Y00676275D01*
X00653955Y00678813D01*
X00653738Y00681342D01*
X00653377Y00683855D01*
X00652873Y00686343D01*
X00652227Y00688798D01*
X00651443Y00691212D01*
X00650522Y00693578D01*
X00649467Y00695887D01*
X00648282Y00698133D01*
X00646972Y00700307D01*
X00645538Y00702402D01*
X00643988Y00704413D01*
X00642326Y00706331D01*
X00640557Y00708152D01*
X00638686Y00709868D01*
X00636721Y00711475D01*
X00634667Y00712967D01*
X00632532Y00714340D01*
X00630321Y00715588D01*
X00628043Y00716708D01*
X00625704Y00717696D01*
X00623313Y00718549D01*
X00620878Y00719265D01*
X00618405Y00719840D01*
X00615904Y00720273D01*
X00613381Y00720562D01*
X00610847Y00720707D01*
X00608308Y00720707D01*
X00605774Y00720562D01*
X00603252Y00720273D01*
X00600750Y00719840D01*
X00598278Y00719265D01*
X00595842Y00718549D01*
X00593451Y00717696D01*
X00591112Y00716708D01*
X00588834Y00715588D01*
X00586624Y00714340D01*
X00584488Y00712967D01*
X00582434Y00711475D01*
X00580469Y00709868D01*
X00578599Y00708151D01*
X00576829Y00706331D01*
X00575167Y00704412D01*
X00573617Y00702402D01*
X00572184Y00700306D01*
X00570873Y00698132D01*
X00569688Y00695887D01*
X00568634Y00693578D01*
X00567713Y00691212D01*
X00566928Y00688798D01*
X00566283Y00686342D01*
X00565779Y00683854D01*
X00565418Y00681342D01*
X00565200Y00678812D01*
X00565128Y00676275D01*
X00360814Y00804421D02*
X00343137Y00786744D01*
X00360814Y00804421D02*
X00338187Y00827049D01*
X00343137Y00786744D02*
X00320509Y00809371D01*
X00338187Y00827049D02*
X00320509Y00809371D01*
X00421522Y00675505D02*
Y00690505D01*
X00389522Y00675505D02*
Y00690505D01*
X00421522D02*
X00389522D01*
X00421522Y00675505D02*
X00389522D01*
X00573698Y00476068D02*
Y00485068D01*
X00556698Y00476068D02*
Y00485068D01*
X00573698D02*
X00556698D01*
X00573698Y00476068D02*
X00556698D01*
X00395520Y00703106D02*
Y00713706D01*
X00401120Y00703106D02*
X00395520D01*
X00401120D02*
Y00713706D01*
X00395520D01*
X00409362Y00703106D02*
Y00713706D01*
X00414962Y00703106D02*
X00409362D01*
X00414962D02*
Y00713706D01*
X00409362D01*
X00528181Y00686738D02*
Y00697338D01*
X00522581D01*
Y00686738D02*
Y00697338D01*
X00528181Y00686738D02*
X00522581Y00686738D01*
X00566218Y00537226D02*
Y00546226D01*
X00583218Y00537226D02*
Y00546226D01*
X00566218D01*
X00583218Y00537226D02*
X00566218D01*
Y00554568D02*
Y00563568D01*
X00583218Y00554568D02*
Y00563568D01*
X00566218D01*
X00583218Y00554568D02*
X00566218D01*
X00566218Y00571911D02*
Y00580911D01*
X00583218D02*
X00583218Y00571911D01*
X00583218Y00580911D02*
X00566218D01*
X00583218Y00571911D02*
X00566218Y00571911D01*
X00566218Y00589253D02*
Y00598253D01*
X00583218Y00589253D02*
Y00598253D01*
X00566218D01*
X00583218Y00589253D02*
X00566218D01*
Y00606596D02*
Y00615596D01*
X00583218Y00606596D02*
Y00615596D01*
X00566218D01*
X00583218Y00606596D02*
X00566218D01*
Y00623938D02*
Y00632938D01*
X00583218Y00623938D02*
Y00632938D01*
X00566218D01*
X00583218Y00623938D02*
X00566218D01*
X00566218Y00641281D02*
Y00650281D01*
X00583218Y00641281D02*
Y00650281D01*
X00566218Y00650281D01*
X00583218Y00641281D02*
X00566218Y00641281D01*
X00566218Y00667623D02*
X00566218Y00658623D01*
X00583218Y00658623D02*
Y00667623D01*
X00566218Y00667623D01*
X00583218Y00658623D02*
X00566218Y00658623D01*
X00566218Y00675966D02*
Y00684966D01*
X00583218Y00675966D02*
Y00684966D01*
X00566218D01*
X00583218Y00675966D02*
X00566218D01*
X00402566Y00595766D02*
X00393566D01*
X00402566Y00612766D02*
X00393566D01*
Y00595766D02*
Y00612766D01*
X00402566Y00595766D02*
Y00612766D01*
X00415758Y00613841D02*
X00410758D01*
X00415758Y00603841D02*
X00410758D01*
X00415758D02*
Y00613841D01*
X00410758Y00603841D02*
Y00613841D01*
X00445128Y01089324D02*
X00445128Y01072724D01*
X00454128D02*
Y01089324D01*
Y01072724D02*
X00445128D01*
X00454128Y01089324D02*
X00445128Y01089324D01*
X00570460Y00994782D02*
X00561460D01*
X00570460Y00977782D02*
X00561460D01*
X00570460D02*
Y00994782D01*
X00561460Y00977782D02*
Y00994782D01*
X00645898Y01090050D02*
X00636898D01*
X00645898Y01107050D02*
X00636898D01*
Y01090050D02*
Y01107050D01*
X00645898Y01090050D02*
Y01107050D01*
X00609862Y01202516D02*
X00604862D01*
X00609862Y01212516D02*
X00604862D01*
Y01202516D02*
Y01212516D01*
X00609862Y01202516D02*
Y01212516D01*
X00667556Y01272476D02*
Y01281476D01*
X00650556Y01272476D02*
Y01281476D01*
X00667556Y01272476D02*
X00650556D01*
X00667556Y01281476D02*
X00650556D01*
X00667556Y01288888D02*
Y01297888D01*
X00650556Y01288888D02*
Y01297888D01*
X00667556Y01288888D02*
X00650556D01*
X00667556Y01297888D02*
X00650556D01*
X00667556Y01305300D02*
X00667556Y01314300D01*
X00650556Y01305300D02*
Y01314300D01*
X00667556Y01305300D02*
X00650556D01*
X00667556Y01314300D02*
X00650556Y01314300D01*
X00570460Y01345574D02*
X00561460D01*
X00570460Y01362574D02*
X00561460D01*
Y01345574D02*
Y01362574D01*
X00570460Y01345574D02*
Y01362574D01*
X00565128Y00676275D02*
X00565128Y00727075D01*
X00654028D02*
X00565128D01*
X00654028Y00676275D02*
Y00727075D01*
X00532818Y01145671D02*
X00527818D01*
X00532818Y01155671D02*
X00527818D01*
X00532818Y01145671D02*
Y01155671D01*
X00527818Y01145671D02*
Y01155671D01*
X00384572Y01383166D02*
X00375572Y01383166D01*
X00384572Y01400166D02*
X00375572D01*
X00375572Y01383166D01*
X00384572Y01383166D02*
Y01400166D01*
X00450220Y01383166D02*
X00441220D01*
X00450220Y01400166D02*
X00441220Y01400166D01*
Y01383166D02*
Y01400166D01*
X00450220Y01383166D02*
X00450220Y01400166D01*
X00466632Y01383166D02*
X00457632Y01383166D01*
X00466632Y01400166D02*
X00457632D01*
X00457632Y01383166D01*
X00466632Y01383166D02*
Y01400166D01*
X00483044Y01383166D02*
X00474044D01*
X00483044Y01400166D02*
X00474044D01*
Y01383166D02*
Y01400166D01*
X00483044Y01383166D02*
Y01400166D01*
X00391501Y01440201D02*
X00386501D01*
X00391501Y01430201D02*
X00386501D01*
Y01440201D01*
X00391501Y01430201D02*
Y01440201D01*
X00342619D02*
X00337619D01*
X00342619Y01430201D02*
X00337619D01*
Y01440201D01*
X00342619Y01430201D02*
Y01440201D01*
X00376662Y01434616D02*
X00351662D01*
Y01464616D01*
X00376662D02*
X00351662D01*
X00376662Y01434616D02*
Y01464616D01*
X00376482Y01498634D02*
Y01509234D01*
Y01498634D02*
X00370882D01*
Y01509234D01*
X00376482D02*
X00370882D01*
X00393774Y01506268D02*
X00384774Y01506268D01*
X00393774Y01489268D02*
X00384774Y01489268D01*
X00384774Y01506268D01*
X00393774Y01489268D02*
X00393774Y01506268D01*
X00487402Y01506522D02*
X00478402D01*
X00487402Y01489522D02*
X00478402D01*
Y01506522D01*
X00487402Y01489522D02*
Y01506522D01*
X00503228Y01497872D02*
Y01508472D01*
Y01497872D02*
X00497628D01*
Y01508472D01*
X00503228D02*
X00497628D01*
X00586462Y01496432D02*
X00577462D01*
X00586462Y01479432D02*
X00577462Y01479432D01*
Y01496432D01*
X00586462Y01479432D02*
X00586462Y01496432D01*
X00657218Y00804046D02*
Y00821046D01*
X00666218Y00804046D02*
Y00821046D01*
Y00804046D02*
X00657218D01*
X00666218Y00821046D02*
X00657218D01*
X00350828Y00469172D02*
X00345228D01*
X00345228Y00479772D01*
X00350828Y00479772D02*
X00345228Y00479772D01*
X00350828Y00479772D02*
X00350828Y00469172D01*
X00467908Y00462568D02*
X00462308D01*
X00462308Y00473168D01*
X00467908Y00473168D02*
X00462308Y00473168D01*
X00467908Y00473168D02*
X00467908Y00462568D01*
X00485201Y00471268D02*
X00476201Y00471268D01*
X00485201Y00454668D02*
X00476201D01*
X00485201D02*
X00485201Y00471268D01*
X00476201Y00454668D02*
X00476201Y00471268D01*
X00502543D02*
X00493543Y00471268D01*
X00502543Y00454668D02*
X00493543D01*
X00502543Y00471268D02*
X00502543Y00454668D01*
X00493543Y00471268D02*
X00493543Y00454668D01*
X00516436Y00462568D02*
X00510836D01*
X00510836Y00473168D01*
X00516436Y00473168D02*
X00510836Y00473168D01*
X00516436Y00473168D02*
X00516436Y00462568D01*
X00487220Y00483398D02*
Y00493398D01*
X00474720D01*
Y00483398D02*
Y00493398D01*
X00487220Y00483398D02*
X00474720Y00483398D01*
X00388034Y01270334D02*
Y01280334D01*
X00393034Y01270334D02*
Y01280334D01*
Y01270334D02*
X00388034D01*
X00393034Y01280334D02*
X00388034D01*
X00379992Y01270334D02*
Y01280334D01*
X00374992Y01270334D02*
Y01280334D01*
X00379992D02*
X00374992D01*
X00379992Y01270334D02*
X00374992D01*
X00659807Y00635776D02*
Y00652776D01*
X00668807Y00635776D02*
Y00652776D01*
Y00635776D02*
X00659807D01*
X00668807Y00652776D02*
X00659807D01*
X00523470Y01089324D02*
X00514470Y01089324D01*
X00523470Y01072724D02*
X00514470D01*
X00523470Y01089324D02*
X00523470Y01072724D01*
X00514470D02*
Y01089324D01*
X00654090Y01098122D02*
Y01108122D01*
X00659090Y01098122D02*
Y01108122D01*
Y01098122D02*
X00654090D01*
X00659090Y01108122D02*
X00654090D01*
X00366733Y00792017D02*
X00364328Y00794421D01*
X00362207Y00787491D02*
X00359803Y00789895D01*
X00364328Y00794421D02*
X00359803Y00789895D01*
X00366733Y00792017D02*
X00362207Y00787491D01*
X00323651Y00826659D02*
X00321247Y00829063D01*
X00328177Y00831185D02*
X00325773Y00833589D01*
X00328177Y00831185D02*
X00323651Y00826659D01*
X00325773Y00833589D02*
X00321247Y00829063D01*
X00400984Y01400166D02*
X00400984Y01383166D01*
X00391984D02*
Y01400166D01*
X00400984Y01400166D02*
X00391984Y01400166D01*
X00400984Y01383166D02*
X00391984D01*
X00417396D02*
Y01400166D01*
X00408396Y01383166D02*
Y01400166D01*
X00417396D02*
X00408396D01*
X00417396Y01383166D02*
X00408396D01*
X00433808Y01400166D02*
X00433808Y01383166D01*
X00424808Y01383166D02*
Y01400166D01*
X00433808D02*
X00424808D01*
X00433808Y01383166D02*
X00424808Y01383166D01*
X00428110Y00800472D02*
X00428110Y00783472D01*
X00437110Y00783472D02*
Y00800472D01*
Y00783472D02*
X00428110Y00783472D01*
X00437110Y00800472D02*
X00428110D01*
X00471400Y00923716D02*
X00462400D01*
X00471400Y00907116D02*
X00462400D01*
X00471400D02*
Y00923716D01*
X00462400Y00907116D02*
X00462400Y00923716D01*
D17*
X00469217Y01450418D02*
Y01487418D01*
X00402217Y01450418D02*
Y01487418D01*
X00469217Y01450418D02*
X00402217D01*
X00469217Y01487418D02*
X00402217Y01487418D01*
D88*
X00520700Y01153616D02*
Y01160736D01*
X00512190Y01153616D02*
Y01160736D01*
M02*
